<?xml version="1.0" standalone="no"?>
<!DOCTYPE svg PUBLIC "-//W3C//DTD SVG 1.1//EN" "http://www.w3.org/Graphics/SVG/1.1/DTD/svg11.dtd" >
<svg xmlns="http://www.w3.org/2000/svg">
<metadata>Generated by IcoMoon</metadata>
<defs>
<font id="icomoon" horiz-adv-x="1024">
<font-face units-per-em="1024" ascent="896" descent="-128" />
<missing-glyph horiz-adv-x="1024" />
<glyph unicode="&#x20;" horiz-adv-x="400" d="" />
<glyph unicode="&#xe900;" glyph-name="search" d="M991.283-36.702l-243.714 253.474c62.663 74.491 96.997 168.216 96.997 265.788 0 227.967-185.473 413.44-413.44 413.44s-413.44-185.473-413.44-413.44 185.473-413.44 413.44-413.44c85.582 0 167.137 25.813 236.865 74.815l245.565-255.398c10.264-10.66 24.069-16.538 38.863-16.538 14.003 0 27.287 5.339 37.371 15.046 21.427 20.618 22.11 54.808 1.492 76.253zM431.127 788.146c168.504 0 305.586-137.082 305.586-305.586s-137.082-305.586-305.586-305.586-305.586 137.082-305.586 305.586 137.082 305.586 305.586 305.586z" />
<glyph unicode="&#xe901;" glyph-name="right-arrow" d="M689.55 733.181c-13.95 14.438-37.168 14.438-51.606 0-13.95-13.95-13.95-37.168 0-51.086l261.674-261.674h-863.49c-20.129-0.033-36.128-16.032-36.128-36.16s15.999-36.648 36.128-36.648h863.49l-261.674-261.187c-13.95-14.438-13.95-37.689 0-51.606 14.438-14.438 37.689-14.438 51.606 0l323.622 323.622c14.438 13.95 14.438 37.168 0 51.086l-323.622 323.654z" />
<glyph unicode="&#xe902;" glyph-name="down-arrow" d="M1013.029 647.746c-14.114 14.114-37.048 14.114-51.161 0l-449.867-450.749-450.749 450.749c-14.114 14.114-37.048 14.114-51.161 0s-14.114-37.048 0-51.161l475.447-475.447c7.056-7.056 15.877-10.586 25.58-10.586 8.821 0 18.524 3.528 25.58 10.586l475.447 475.447c14.996 14.114 14.996 37.048 0.882 51.161z" />
<glyph unicode="&#xe903;" glyph-name="linkedin-logo" d="M948.38 896h-872.717c-41.789 0-75.66-32.838-75.66-73.367v-877.235c0-40.532 33.883-73.398 75.66-73.398h872.717c41.78 0 75.612 32.888 75.612 73.398v877.235c0 40.518-33.833 73.367-75.612 73.367zM310.449 38.842h-154.717v462.323h154.717v-462.323zM233.106 564.327h-1.040c-51.884 0-85.516 35.483-85.516 79.905 0 45.317 34.621 79.838 87.533 79.838 52.917 0 85.466-34.511 86.495-79.838 0-44.432-33.566-79.905-87.471-79.905zM868.159 38.842h-154.667v247.359c0 62.154-22.41 104.565-78.343 104.565-42.789 0-68.189-28.612-79.343-56.236-4.133-9.866-5.157-23.665-5.157-37.444v-258.234h-154.639c0 0 2.024 418.961 0 462.321h154.663v-65.544c20.532 31.495 57.221 76.422 139.354 76.422 101.801 0 178.132-66.039 178.132-208.11v-265.098zM549.673 434.16c0.264 0.433 0.633 0.955 1 1.462v-1.462h-1z" />
<glyph unicode="&#xe904;" glyph-name="twitter" d="M1024 701.504c-38.080-16.704-78.656-27.776-120.96-33.152 43.52 25.984 76.736 66.816 92.352 116.032-40.576-24.192-85.376-41.28-133.12-50.816-38.528 41.024-93.44 66.432-153.344 66.432-116.224 0-209.792-94.336-209.792-209.984 0-16.64 1.408-32.64 4.864-47.872-174.528 8.512-328.96 92.16-432.704 219.584-18.112-31.424-28.736-67.392-28.736-106.112 0-72.704 37.44-137.152 93.248-174.464-33.728 0.64-66.816 10.432-94.848 25.856 0-0.64 0-1.472 0-2.304 0-102.016 72.768-186.752 168.192-206.272-17.088-4.672-35.712-6.912-55.040-6.912-13.44 0-27.008 0.768-39.744 3.584 27.2-83.136 104.384-144.256 196.16-146.24-71.424-55.872-162.112-89.536-260.288-89.536-17.216 0-33.728 0.768-50.24 2.88 92.992-59.968 203.2-94.208 322.048-94.208 386.304 0 597.504 320 597.504 597.376 0 9.28-0.32 18.24-0.768 27.136 41.664 29.568 76.672 66.496 105.216 108.992z" />
<glyph unicode="&#xe905;" glyph-name="facebook-logo" d="M767.965 895.787l-132.79 0.213c-149.185 0-245.595-98.913-245.595-252.008v-116.192h-133.514c-11.537 0-20.88-9.353-20.88-20.891v-168.35c0-11.537 9.353-20.88 20.88-20.88h133.514v-424.8c0-11.537 9.343-20.88 20.88-20.88h174.198c11.537 0 20.88 9.353 20.88 20.88v424.8h156.109c11.537 0 20.88 9.343 20.88 20.88l0.064 168.35c0 5.54-2.205 10.845-6.115 14.765s-9.236 6.125-14.776 6.125h-156.163v98.498c0 47.342 11.282 71.375 72.952 71.375l89.453 0.032c11.527 0 20.869 9.353 20.869 20.88v156.322c0 11.516-9.332 20.859-20.848 20.88z" />
<glyph unicode="&#xe906;" glyph-name="youtube" d="M980.48 668.16c-27.776 49.408-57.92 58.496-119.296 61.952-61.312 4.16-215.488 5.888-349.056 5.888-133.824 0-288.064-1.728-349.312-5.824-61.248-3.52-91.456-12.544-119.488-62.016-28.608-49.344-43.328-134.336-43.328-283.968 0-0.128 0-0.192 0-0.192 0-0.128 0-0.192 0-0.192v-0.128c0-148.992 14.72-234.624 43.328-283.456 28.032-49.408 58.176-58.368 119.424-62.528 61.312-3.584 215.552-5.696 349.376-5.696 133.568 0 287.744 2.112 349.12 5.632 61.376 4.16 91.52 13.12 119.296 62.528 28.864 48.832 43.456 134.464 43.456 283.456 0 0 0 0.192 0 0.32 0 0 0 0.128 0 0.192 0 149.696-14.592 234.688-43.52 284.032zM384 192v384l320-192-320-192z" />
<glyph unicode="&#xe907;" glyph-name="telephone" d="M778.514 218.604c-33.454 33.028-75.219 33.028-108.46 0-25.357-25.144-50.714-50.288-75.645-75.858-6.819-7.032-12.572-8.523-20.882-3.836-16.408 8.95-33.88 16.194-49.649 25.996-73.514 46.239-135.096 105.69-189.645 172.599-27.062 33.241-51.14 68.826-67.974 108.886-3.409 8.097-2.77 13.424 3.836 20.030 25.357 24.505 50.075 49.649 75.006 74.793 34.733 34.946 34.733 75.858-0.213 111.017-19.817 20.030-39.634 39.634-59.451 59.664-20.456 20.456-40.699 41.125-61.368 61.368-33.454 32.602-75.219 32.602-108.46-0.213-25.57-25.144-50.075-50.927-76.071-75.645-24.079-22.8-36.224-50.714-38.781-83.316-4.049-53.058 8.95-103.133 27.275-151.929 37.503-101.002 94.61-190.711 163.862-272.962 93.544-111.23 205.201-199.234 335.822-262.733 58.811-28.553 119.754-50.501 186.023-54.124 45.6-2.557 85.234 8.95 116.984 44.535 21.735 24.292 46.239 46.452 69.253 69.679 34.094 34.52 34.307 76.284 0.426 110.378-40.486 40.699-81.185 81.185-121.884 121.671zM737.814 388.432l78.628 13.424c-12.359 72.236-46.452 137.653-98.232 189.645-54.763 54.763-124.015 89.283-200.3 99.937l-11.080-79.054c59.024-8.31 112.722-34.946 155.126-77.35 40.060-40.060 66.269-90.774 75.858-146.602zM860.764 730.22c-90.774 90.774-205.627 148.094-332.412 165.78l-11.080-79.054c109.526-15.342 208.823-64.991 287.238-143.193 74.367-74.367 123.163-168.337 140.849-271.683l78.628 13.424c-20.669 119.754-77.137 228.427-163.223 314.726z" />
<glyph unicode="&#xe908;" glyph-name="telephone-symbol-button" d="M967.664 839.671c-37.54 37.55-82.77 56.328-135.654 56.328h-640.003c-52.884 0-98.114-18.778-135.671-56.328-37.55-37.557-56.328-82.784-56.328-135.671v-639.996c0-52.882 18.778-98.114 56.328-135.671 37.557-37.557 82.787-56.335 135.671-56.335h639.996c52.884 0 98.114 18.778 135.654 56.335 37.557 37.557 56.335 82.787 56.335 135.671v639.996c-0.002 52.886-18.781 98.121-56.328 135.671zM838.65 118.726c-9.333-20.441-30.332-38.227-62.992-53.346-32.667-15.119-61.675-22.678-87.015-22.678-7.113 0-14.671 0.549-22.669 1.66-8 1.118-14.767 2.223-20.322 3.334-5.553 1.111-12.896 3.108-21.998 6.001-9.118 2.881-15.68 5.111-19.666 6.664-4.012 1.55-11.339 4.329-21.998 8.327-10.669 4.012-17.342 6.456-19.993 7.327-72.888 26.683-144.121 74.787-213.672 144.338-69.552 69.568-117.665 140.784-144.334 213.66-0.883 2.669-3.327 9.338-7.332 20-3.998 10.659-6.783 17.999-8.338 21.994-1.546 4-3.771 10.557-6.662 19.661-2.888 9.114-4.883 16.441-5.996 22.003-1.116 5.548-2.218 12.322-3.332 20.324-1.111 8.002-1.665 15.568-1.665 22.673 0 25.335 7.559 54.334 22.673 87.001 15.112 32.663 32.887 53.662 53.335 62.997 23.556 9.781 46 14.671 67.336 14.671 4.883 0 8.444-0.448 10.659-1.336 2.225-0.899 5.894-4.89 11.007-12.002s10.666-16.109 16.665-27c6.001-10.893 11.89-21.45 17.667-31.668 5.777-10.22 11.334-20.327 16.67-30.335 5.333-9.992 8.665-16.334 9.996-18.991 1.333-2.235 4.224-6.449 8.665-12.677 4.441-6.218 7.783-11.766 10.001-16.661 2.218-4.89 3.332-9.557 3.332-14.001 0-6.676-4.56-14.783-13.669-24.331-9.114-9.557-19.115-18.339-30.005-26.342s-20.887-16.56-29.998-25.671c-9.104-9.104-13.665-16.548-13.665-22.328 0-3.113 0.778-6.776 2.335-10.998 1.555-4.231 3.001-7.675 4.334-10.337 1.333-2.664 3.449-6.445 6.333-11.339 2.888-4.894 4.782-8.002 5.665-9.338 24.441-43.999 52.557-81.89 84.328-113.672 31.785-31.787 69.668-59.889 113.675-84.335 1.324-0.897 4.441-2.781 9.35-5.674 4.883-2.877 8.67-4.988 11.332-6.321 2.669-1.333 6.104-2.781 10.333-4.324 4.229-1.55 7.895-2.333 11.019-2.333 7.089 0 16.871 7.327 29.328 21.991 12.441 14.678 25.116 29.23 38.005 43.677 12.88 14.433 23.315 21.655 31.332 21.655 4.441 0 9.1-1.104 14.008-3.325 4.892-2.221 10.435-5.562 16.654-10.003 6.232-4.46 10.452-7.337 12.675-8.689l35.318-19.313c23.558-12.45 43.224-23.446 59.007-33.003s24.34-16.109 25.676-19.659c0.885-2.221 1.317-5.786 1.317-10.676-0.016-21.314-4.908-43.761-14.704-67.256z" />
<glyph unicode="&#xe909;" glyph-name="close-envelope" d="M512 237.714l-126.683 110.885-362.203-310.491c13.166-12.215 30.939-19.822 50.542-19.822h876.69c19.529 0 37.23 7.607 50.322 19.822l-361.984 310.491-126.683-110.885zM1000.887 729.893c-13.166 12.288-30.866 19.822-50.542 19.822h-876.69c-19.529 0-37.23-7.607-50.395-19.968l488.741-418.889 488.887 419.035zM0 685.495v-607.671l353.499 300.398zM670.501 378.222l353.499-300.398v607.89z" />
<glyph unicode="&#xe90a;" glyph-name="envelope" d="M98.285 538.281c12.953-9.141 52-36.289 117.142-81.429 65.144-45.141 115.048-79.898 149.715-104.274 3.809-2.672 11.901-8.48 24.28-17.433 12.381-8.959 22.669-16.198 30.855-21.72 8.192-5.52 18.095-11.713 29.72-18.568 11.62-6.849 22.574-12.001 32.86-15.411 10.288-3.439 19.81-5.142 28.571-5.142h1.151c8.76 0 18.287 1.705 28.575 5.142 10.282 3.41 21.246 8.568 32.856 15.411 11.616 6.863 21.52 13.050 29.712 18.568 8.192 5.522 18.471 12.761 30.857 21.72 12.377 8.961 20.479 14.761 24.288 17.433 35.042 24.376 124.193 86.283 267.424 185.716 27.808 19.42 51.041 42.853 69.705 70.283 18.678 27.418 28.006 56.181 28.006 86.273 0 25.146-9.053 46.672-27.15 64.575-18.095 17.907-39.527 26.856-64.281 26.856h-841.142c-29.331 0-51.904-9.903-67.713-29.71-15.808-19.81-23.711-44.573-23.711-74.284 0-24 10.48-50.007 31.429-78.005 20.947-28 43.24-50.003 66.855-66zM966.849 477.144c-124.939-84.564-219.809-150.284-284.561-197.146-21.714-15.994-39.329-28.479-52.857-37.425-13.528-8.953-31.519-18.095-53.999-27.424-22.472-9.343-43.416-14-62.848-14h-1.157c-19.428 0-40.383 4.657-62.856 14-22.472 9.329-40.476 18.471-53.999 27.424-13.52 8.947-31.141 21.432-52.853 37.425-51.432 37.712-146.097 103.436-283.998 197.146-21.72 14.467-40.958 31.049-57.72 49.712v-453.7c0-25.158 8.949-46.672 26.856-64.577 17.903-17.911 39.431-26.864 64.575-26.864h841.144c25.138 0 46.664 8.953 64.569 26.864 17.911 17.911 26.856 39.417 26.856 64.577v453.7c-16.384-18.277-35.426-34.859-57.152-49.712z" />
<glyph unicode="&#xe90b;" glyph-name="quotation" d="M237.628 421.74v-82.428h205.932v-443.55h-443.561v443.55h0.011v82.428c0 167.38 48.158 291.667 143.145 369.431 65.708 53.792 148.881 81.066 247.213 81.066v-237.607c-53.379 0-152.74 0-152.74-212.89zM970.814 634.63v237.607c-98.327 0-181.499-27.274-247.208-81.066-94.987-77.764-143.151-202.057-143.151-369.431v-525.977h443.544v443.55h-205.932v82.428c0.005 212.89 99.367 212.89 152.746 212.89z" />
<glyph unicode="&#xe90c;" glyph-name="envelope1" d="M98.284 538.281c12.953-9.141 52-36.289 117.142-81.429 65.144-45.141 115.048-79.898 149.715-104.274 3.809-2.672 11.901-8.48 24.28-17.433 12.381-8.959 22.669-16.198 30.855-21.72 8.192-5.52 18.095-11.713 29.72-18.568 11.62-6.849 22.574-12.001 32.86-15.411 10.288-3.439 19.81-5.142 28.571-5.142h1.151c8.76 0 18.287 1.705 28.575 5.142 10.282 3.41 21.246 8.568 32.856 15.411 11.616 6.863 21.52 13.050 29.712 18.568 8.192 5.522 18.471 12.761 30.857 21.72 12.377 8.961 20.479 14.761 24.288 17.433 35.042 24.376 124.193 86.283 267.425 185.716 27.808 19.42 51.041 42.853 69.705 70.283 18.678 27.418 28.006 56.181 28.006 86.273 0 25.146-9.053 46.672-27.15 64.575-18.095 17.907-39.527 26.856-64.281 26.856h-841.144c-29.331 0-51.904-9.903-67.713-29.71-15.808-19.81-23.711-44.573-23.711-74.284 0-24 10.48-50.007 31.429-78.005 20.947-28 43.24-50.003 66.855-66zM966.85 477.144c-124.939-84.564-219.809-150.284-284.562-197.146-21.714-15.994-39.329-28.479-52.857-37.425-13.528-8.953-31.519-18.095-53.999-27.424-22.472-9.343-43.416-14-62.848-14h-1.157c-19.428 0-40.383 4.657-62.856 14-22.472 9.329-40.476 18.471-53.999 27.424-13.52 8.947-31.141 21.432-52.853 37.425-51.432 37.712-146.097 103.436-283.999 197.146-21.72 14.467-40.958 31.049-57.72 49.712v-453.701c0-25.158 8.949-46.672 26.856-64.577 17.903-17.911 39.431-26.864 64.575-26.864h841.146c25.138 0 46.664 8.953 64.569 26.864 17.911 17.911 26.856 39.417 26.856 64.577v453.701c-16.384-18.277-35.426-34.859-57.152-49.712z" />
<glyph unicode="&#xe90d;" glyph-name="pin" d="M515.346 671.59c-72.166 0-130.906-58.739-130.906-130.906s58.739-130.906 130.906-130.906 130.906 58.739 130.906 130.906-58.739 130.906-130.906 130.906zM515.346 447.181c-51.558 0-93.504 41.946-93.504 93.504s41.946 93.504 93.504 93.504 93.504-41.946 93.504-93.504-41.946-93.504-93.504-93.504zM765.619 790.958c-67.734 67.734-157.797 105.042-253.583 105.042-95.804 0-185.849-37.308-253.583-105.042-125.351-125.333-140.929-361.15-33.736-504.024l287.319-414.933 286.889 414.354c107.623 143.454 92.045 379.271-33.306 504.604zM768.592 308.215l-256.556-370.5-256.968 371.080c-97.225 129.634-83.293 342.599 29.846 455.72 60.665 60.665 141.322 94.084 227.121 94.084s166.456-33.418 227.14-94.084c113.14-113.121 127.072-326.086 29.416-456.3z" />
<glyph unicode="&#xe90e;" glyph-name="telephone1" d="M208.66 215.314c101-120.733 222.581-215.791 361.349-283.053 52.834-25.038 123.491-54.743 202.211-59.836 4.88-0.212 9.548-0.424 14.429-0.424 52.834 0 95.271 18.248 129.857 55.804 0.212 0.212 0.637 0.637 0.849 1.061 12.307 14.853 26.311 28.22 40.952 42.437 9.973 9.548 20.157 19.521 29.918 29.706 45.195 47.105 45.195 106.941-0.424 152.56l-127.523 127.523c-21.643 22.492-47.529 34.374-74.689 34.374s-53.258-11.882-75.538-34.162l-75.962-75.962c-7.002 4.031-14.216 7.639-21.006 11.034-8.487 4.244-16.338 8.275-23.34 12.731-69.172 43.922-131.978 101.212-192.027 174.84-30.342 38.405-50.712 70.657-64.928 103.546 19.945 18.036 38.617 36.92 56.653 55.38 6.366 6.578 12.943 13.155 19.521 19.733 22.916 22.916 35.223 49.439 35.223 76.386s-12.094 53.47-35.223 76.386l-63.231 63.231c-7.426 7.426-14.429 14.641-21.643 22.067-14.004 14.429-28.645 29.281-43.073 42.649-21.855 21.431-47.529 32.676-74.689 32.676-26.947 0-52.834-11.246-75.538-32.889l-79.357-79.357c-28.857-28.857-45.195-63.867-48.59-104.395-4.031-50.712 5.305-104.607 29.494-169.747 37.132-100.787 93.149-194.361 176.325-294.299zM54.614 674.904c2.546 28.22 13.368 51.773 33.737 72.143l78.932 78.932c12.307 11.882 25.886 18.036 39.042 18.036 12.943 0 26.099-6.153 38.193-18.46 14.216-13.155 27.584-26.947 42.012-41.588 7.214-7.426 14.641-14.853 22.067-22.492l63.231-63.231c13.155-13.155 19.945-26.523 19.945-39.678s-6.79-26.523-19.945-39.678c-6.578-6.578-13.155-13.368-19.733-19.945-19.733-19.945-38.193-38.83-58.563-56.865-0.424-0.424-0.637-0.637-1.061-1.061-17.611-17.611-14.853-34.374-10.609-47.105 0.212-0.637 0.424-1.061 0.637-1.697 16.338-39.254 39.042-76.598 74.477-121.157 63.655-78.508 130.705-139.405 204.545-186.298 9.124-5.941 18.884-10.609 28.008-15.277 8.487-4.244 16.338-8.275 23.34-12.731 0.849-0.424 1.485-0.849 2.334-1.273 7.002-3.607 13.792-5.305 20.582-5.305 16.975 0 28.008 10.821 31.615 14.429l79.357 79.357c12.307 12.307 25.674 18.884 38.83 18.884 16.126 0 29.281-9.973 37.557-18.884l127.947-127.735c25.462-25.462 25.25-53.046-0.637-79.993-8.912-9.548-18.248-18.672-28.22-28.22-14.853-14.429-30.342-29.281-44.346-46.044-24.401-26.311-53.47-38.617-91.027-38.617-3.607 0-7.426 0.212-11.034 0.424-69.596 4.456-134.312 31.615-182.903 54.743-131.978 63.867-247.831 154.47-343.95 269.474-79.145 95.271-132.403 183.964-167.625 279.022-21.855 58.351-30.13 105.243-26.735 147.892z" />
<glyph unicode="&#xe90f;" glyph-name="mail" d="M829.086 185.751c-4.061 0-8.123 1.486-11.293 4.491l-189.994 178.239c-6.637 6.208-6.967 16.675-0.726 23.312 6.241 6.703 16.642 7 23.345 0.726l189.994-178.239c6.637-6.208 6.967-16.675 0.726-23.312-3.269-3.467-7.627-5.217-12.052-5.217zM194.881 185.751c-4.392 0-8.783 1.75-12.052 5.217-6.241 6.637-5.91 17.104 0.726 23.312l190.060 178.239c6.67 6.208 17.137 5.944 23.345-0.726 6.241-6.637 5.91-17.104-0.726-23.312l-190.060-178.239c-3.17-3.005-7.231-4.491-11.293-4.491zM941.451 20.026h-858.903c-45.501 0-82.549 37.015-82.549 82.549v562.883c0 45.534 37.048 82.549 82.549 82.549h858.903c45.501 0 82.549-37.015 82.549-82.549v-562.883c0-45.534-37.048-82.549-82.549-82.549zM82.549 714.987c-27.307 0-49.529-22.222-49.529-49.529v-562.883c0-27.307 22.222-49.529 49.529-49.529h858.903c27.307 0 49.529 22.222 49.529 49.529v562.883c0 27.307-22.222 49.529-49.529 49.529h-858.903zM512 301.055c-21.958 0-43.916 7.297-60.624 21.859l-423.97 369.851c-6.868 5.977-7.594 16.411-1.618 23.312 6.043 6.868 16.444 7.495 23.312 1.585l423.97-369.818c21.099-18.392 56.76-18.392 77.827 0l423.442 369.224c6.835 5.977 17.236 5.316 23.312-1.585 5.977-6.901 5.283-17.302-1.585-23.312l-423.442-369.224c-16.741-14.595-38.666-21.892-60.624-21.892z" />
<glyph unicode="&#xe910;" glyph-name="left-quote" d="M327.742 424.033c-25.221 7.261-50.442 10.945-74.975 10.945-37.885 0-69.497-8.658-94.009-19.259 23.631 86.511 80.399 235.785 193.485 252.595 10.473 1.558 19.055 9.13 21.912 19.324l24.716 88.402c2.084 7.476 0.849 15.478-3.416 21.966s-11.117 10.817-18.797 11.869c-8.346 1.139-16.853 1.719-25.285 1.719-135.739 0-270.168-141.679-326.893-344.541-33.298-119.015-43.062-297.945 38.959-410.569 45.898-63.020 112.86-96.673 199.028-100.035 0.354-0.011 0.698-0.021 1.053-0.021 106.318 0 200.596 71.602 229.275 174.107 17.133 61.28 9.388 125.546-21.827 181.003-30.882 54.835-81.742 94.804-143.226 112.495zM993.269 311.528c-30.882 54.846-81.742 94.814-143.226 112.506-25.221 7.261-50.442 10.945-74.964 10.945-37.885 0-69.508-8.658-94.020-19.259 23.631 86.511 80.399 235.785 193.496 252.595 10.473 1.558 19.045 9.13 21.912 19.324l24.716 88.402c2.084 7.476 0.849 15.478-3.416 21.966-4.254 6.488-11.107 10.817-18.797 11.869-8.335 1.139-16.843 1.719-25.285 1.719-135.739 0-270.168-141.679-326.904-344.541-33.288-119.015-43.052-297.945 38.981-410.59 45.887-63.009 112.86-96.673 199.017-100.024 0.354-0.011 0.698-0.021 1.063-0.021 106.308 0 200.596 71.602 229.275 174.107 17.111 61.28 9.356 125.556-21.848 181.003z" />
<glyph unicode="&#xe911;" glyph-name="return" d="M1024 448h-780.8l358.4 358.4-89.6 89.6-512-512 512-512 89.6 89.6-358.4 358.4h780.8v128z" />
<glyph unicode="&#xe912;" glyph-name="magnifying-glass" d="M1015.031-75.778l-248.848 248.848c66.753 76.743 107.168 176.873 107.168 286.311 0 240.901-195.945 436.619-436.619 436.619-240.901 0-436.619-195.945-436.619-436.619s195.945-436.619 436.619-436.619c109.439 0 209.568 40.415 286.311 107.168l248.848-248.848c5.903-5.903 13.85-9.082 21.57-9.082s15.667 2.952 21.57 9.082c11.807 11.807 11.807 31.333 0 43.14zM61.19 459.381c0 207.071 168.472 375.315 375.315 375.315 207.071 0 375.315-168.472 375.315-375.315s-168.245-375.542-375.315-375.542c-206.843 0-375.315 168.472-375.315 375.542z" />
<glyph unicode="&#xe913;" glyph-name="profile" d="M510.319 324.308c151.331 0 274.075 122.746 274.075 274.075s-122.746 273.236-274.075 273.236-274.075-122.746-274.075-273.236 122.744-274.075 274.075-274.075zM510.319 800.157c110.975 0 201.774-90.797 201.774-201.774s-90.799-201.772-201.774-201.772-201.774 90.797-201.774 201.774 90.797 201.772 201.774 201.772zM36.151-103.619h951.699c20.177 0 36.151 15.973 36.151 36.151 0 189.163-153.852 343.856-343.856 343.856h-336.288c-189.163 0-343.856-153.852-343.856-343.856 0-20.177 15.973-36.151 36.151-36.151zM343.856 204.086h336.288c137.878 0 251.376-102.569 269.032-235.402h-874.352c17.655 131.992 131.154 235.402 269.032 235.402z" />
<glyph unicode="&#xe914;" glyph-name="font-selection-editor" d="M796.708 270.936c-7.658 3.056-14.361 1.715-20.096-4.017l-36.739-36.739c-3.44-3.434-5.173-7.652-5.173-12.618v-72.332c0-25.261-8.973-46.872-26.956-64.865-17.998-17.984-39.608-26.976-64.865-26.976h-477.571c-25.255 0-46.878 8.993-64.865 26.976-17.988 17.992-26.976 39.602-26.976 64.865v477.559c0 25.257 8.989 46.878 26.976 64.867 17.988 17.984 39.61 26.976 64.865 26.976h477.575c8.416 0 17.029-1.148 25.828-3.446 6.902-2.294 13.012-0.766 18.363 4.592l28.118 28.126c4.596 4.586 6.309 10.139 5.167 16.643-1.148 6.12-4.596 10.523-10.336 13.199-20.667 9.554-43.048 14.353-67.155 14.353h-477.561c-45.533 0-84.473-16.168-116.811-48.504-32.328-32.34-48.496-71.271-48.496-116.809v-477.569c0-45.531 16.168-84.467 48.498-116.803 32.336-32.344 71.279-48.512 116.811-48.512h477.561c45.531 0 84.467 16.168 116.803 48.512 32.344 32.336 48.512 71.271 48.512 116.803v109.057c-0.002 8.050-3.836 13.593-11.478 16.663zM367.352 292.152v-165.301h165.318l385.725 385.723-165.316 165.309-385.727-385.732zM509.698 181.949v0l-32.147 0.014v55.088h-55.098v32.135l66.586 66.586 87.246-87.254-66.586-66.57zM761.682 576.292l-200.907-200.901c-6.502-6.516-12.819-6.703-18.94-0.579-6.118 6.124-5.931 12.437 0.577 18.936l200.907 200.903c6.5 6.512 12.803 6.701 18.94 0.577s5.917-12.435-0.577-18.936zM1007.932 680.182l-87.246 87.246c-10.712 10.716-23.715 16.074-39.029 16.074-15.31 0-28.319-5.358-39.025-16.074l-52.813-52.801 165.316-165.318 52.799 52.811c10.712 10.71 16.066 23.723 16.066 39.031s-5.356 28.315-16.068 39.031z" />
<glyph unicode="&#xe915;" glyph-name="football" d="M512 896c-282.767 0-512-229.233-512-512s229.233-512 512-512 512 229.233 512 512c-0.317 282.633-229.367 511.683-512 512zM530.275 748.392l177.992 71.15c20.2-9.142 39.742-19.675 58.483-31.525l0.467-0.292c18.417-11.667 36.017-24.575 52.683-38.633l1.433-1.25c7.475-6.367 14.742-12.958 21.808-19.758 0.892-0.875 1.825-1.708 2.717-2.6 7.408-7.233 14.583-14.692 21.525-22.367 0.575-0.65 1.125-1.333 1.7-1.983 6.092-6.825 11.95-13.892 17.633-21.075 1.367-1.708 2.733-3.417 4.058-5.125 6.167-7.983 12.133-16.108 17.767-24.492l-35.483-150.833-174.575-58.2-168.167 134.558zM133.208 674.833c1.325 1.708 2.675 3.417 4.042 5.117 5.617 7.125 11.425 14.075 17.425 20.858 0.65 0.717 1.25 1.45 1.892 2.167 6.9 7.692 14.042 15.142 21.442 22.358 0.85 0.833 1.7 1.708 2.592 2.475 7.008 6.758 14.217 13.308 21.625 19.642l1.708 1.433c16.517 13.958 33.95 26.783 52.183 38.4l0.667 0.425c18.633 11.825 38.050 22.342 58.133 31.492l178.808-70.808v-172.375l-168.175-134.533-174.575 58.092-35.483 150.833c5.683 8.367 11.583 16.475 17.717 24.425zM112.642 122.108c-5.017 7.65-9.817 15.442-14.392 23.383l-1.108 1.917c-4.55 7.9-8.858 15.933-12.917 24.092l-0.142 0.258c-8.55 17.167-16.058 34.833-22.475 52.908v0.167c-3.033 8.533-5.8 17.275-8.358 26.067l-0.925 3.242c-2.342 8.258-4.467 16.608-6.367 25.050-0.167 0.825-0.375 1.608-0.542 2.425-4.192 19.067-7.2 38.367-9.017 57.808l104.192 125.025 173.367-57.783 50.317-201.25-82.675-110zM625.65-80.092c-8.533-2.117-17.292-3.942-26.050-5.583-1.225-0.242-2.475-0.442-3.7-0.667-7.458-1.333-15-2.475-22.558-3.408-2.017-0.258-4.017-0.533-6.025-0.775-7.017-0.817-14.1-1.433-21.2-1.942-2.233-0.15-4.442-0.375-6.675-0.517-9.075-0.558-18.225-0.883-27.442-0.883-8.442 0-16.833 0.225-25.175 0.667-1.008 0-1.975 0.167-2.983 0.242-7.425 0.425-14.817 0.983-22.192 1.7l-0.85 0.158c-16.158 1.75-32.225 4.317-48.125 7.675l-100.95 158.058 81.375 108.508h237.8l82.708-109.225zM978.708 281.6c-0.175-0.817-0.375-1.608-0.55-2.425-1.908-8.433-4.033-16.783-6.367-25.050l-0.917-3.242c-2.567-8.792-5.325-17.5-8.367-26.067v-0.167c-6.417-18.075-13.917-35.742-22.475-52.908l-0.142-0.258c-4.083-8.167-8.383-16.2-12.917-24.092l-1.108-1.917c-4.55-7.967-9.342-15.742-14.367-23.35l-168.383-26.55-83.25 109.908 50.292 201.2 173.367 57.783 104.192-125.025c-1.808-19.45-4.817-38.767-9.008-57.842z" />
<glyph unicode="&#xe916;" glyph-name="running" d="M242 759h-152c-16.582 0-30-13.418-30-30s13.418-30 30-30h152c16.582 0 30 13.418 30 30s-13.418 30-30 30zM242 519h-152c-16.582 0-30-13.418-30-30s13.418-30 30-30h152c16.582 0 30 13.418 30 30s-13.418 30-30 30zM182 639h-152c-16.582 0-30-13.418-30-30s13.418-30 30-30h152c16.582 0 30 13.418 30 30s-13.418 30-30 30zM964 489h-182v120c0 52.692-64.458 80.436-102.44 42.404l-239.982-239.982c-23.438-23.438-23.438-61.406 0-84.844l137.578-137.578-167.578-167.578c-23.438-23.438-23.438-61.406 0-84.844 23.436-23.436 61.406-23.438 84.844 0l210 210c23.438 23.438 23.438 61.406 0 84.844l-137.578 137.578 95.156 95.156v-35.156c0-33.134 26.866-60 60-60h242c33.134 0 60 26.866 60 60s-26.866 60-60 60zM560.28 793.92c-23.848 15.85-55.488 12.714-75.704-7.5l-165-165c-23.438-23.438-23.438-61.406 0-84.844s61.408-23.436 84.846 0.002l130.224 130.224 43.868-31.6 58.612 58.612c9.804 9.804 21.368 17.414 34.014 23.356l-110.86 76.75zM397.156 284.156c-15.202 15.202-25.35 33.912-30.7 54.144l-316.878-316.878c-23.438-23.438-23.438-61.406 0-84.844 23.436-23.436 61.406-23.438 84.844 0l305.156 305.156-42.422 42.422zM902 759c0-49.706-40.294-90-90-90s-90 40.294-90 90c0 49.706 40.294 90 90 90s90-40.294 90-90z" />
<glyph unicode="&#xe917;" glyph-name="target" d="M899.192 652.444c0.71-0.080 1.418-0.118 2.124-0.118 5.058 0 9.95 2.004 13.57 5.622l103.492 103.49c5.264 5.266 7.010 13.102 4.474 20.106s-8.894 11.908-16.31 12.582l-77.382 7.034-7.038 77.382c-0.672 7.416-5.578 13.774-12.58 16.308-7.004 2.536-14.84 0.792-20.108-4.474l-103.492-103.492c-4.122-4.122-6.15-9.898-5.504-15.694l9.16-82.446-19.38-19.38c-71.576 65.474-165.456 106.928-268.764 111.52v36.446c0 10.6-8.594 19.194-19.194 19.194s-19.194-8.594-19.194-19.194v-36.44c-220.25-9.792-397.638-187.18-407.432-407.432h-36.44c-10.6 0-19.194-8.594-19.194-19.194s8.594-19.194 19.194-19.194h36.44c9.794-220.252 187.182-397.638 407.432-407.432v-36.44c0-10.6 8.594-19.194 19.194-19.194s19.194 8.594 19.194 19.194v36.44c220.25 9.792 397.638 187.18 407.432 407.432h36.44c10.6 0 19.194 8.594 19.194 19.194s-8.594 19.194-19.194 19.194h-36.44c-4.592 103.308-46.046 197.188-111.518 268.768l19.38 19.38 82.444-9.162zM887.604 834.254l4.774-52.5c0.84-9.228 8.148-16.538 17.376-17.378l52.5-4.772-67.992-67.99-67.184 7.464-7.464 67.184 67.99 67.992zM870.472 373.458h-27.042c-10.6 0-19.194-8.594-19.194-19.194s8.594-19.194 19.194-19.194h27.042c-9.73-199.084-169.934-359.288-369.016-369.016v27.040c0 10.6-8.594 19.194-19.194 19.194s-19.194-8.594-19.194-19.194v-27.040c-199.084 9.726-359.288 169.934-369.018 369.014h27.042c10.6 0 19.194 8.594 19.194 19.194s-8.594 19.194-19.194 19.194h-27.042c9.73 199.080 169.934 359.288 369.016 369.016v-27.040c0-10.6 8.594-19.194 19.194-19.194s19.194 8.594 19.194 19.194v27.040c92.732-4.532 177.026-41.71 241.61-100.26l-57.756-57.756c-54.166 47.838-125.27 76.918-203.050 76.918-169.342 0-307.112-137.768-307.112-307.112s137.77-307.112 307.112-307.112 307.112 137.768 307.112 307.112c0 77.778-29.080 148.882-76.914 203.052l57.756 57.756c58.552-64.586 95.728-148.882 100.26-241.612zM468.688 340.69c3.75-3.748 8.66-5.622 13.572-5.622s9.826 1.874 13.572 5.622l104.24 104.24c19.376-25.12 30.944-56.562 30.944-90.668 0-82.026-66.732-148.758-148.758-148.758s-148.758 66.732-148.758 148.758 66.732 148.758 148.758 148.758c34.106 0 65.546-11.568 90.668-30.944l-104.24-104.24c-7.492-7.498-7.492-19.65 0.002-27.146zM482.262 541.406c-103.194 0-187.146-83.954-187.146-187.146s83.952-187.146 187.146-187.146c103.194 0 187.146 83.954 187.146 187.146 0 44.696-15.77 85.768-42.012 117.988l57.884 57.884c40.914-47.166 65.706-108.676 65.706-175.87 0-148.174-120.548-268.722-268.722-268.722s-268.722 120.548-268.722 268.722 120.548 268.724 268.722 268.724c67.192 0 128.706-24.792 175.872-65.706l-57.884-57.886c-32.222 26.242-73.292 42.012-117.99 42.012z" />
<glyph unicode="&#xe918;" glyph-name="muscle" d="M666.508 414c-121.141 0-228.141-61.609-291.328-155.156v205.484c0 27.758 22.578 50.336 50.328 50.336 60.844 0 110.336 49.5 110.336 110.336v160.664c0 60.844-49.492 110.336-110.336 110.336h-160.664c-28.461 0-56.875-10.789-80.008-30.391-23.125-19.594-38.445-45.844-43.125-73.922l-134.25-805.508c-4.922-29.492 2.727-58.758 20.969-80.297 18.242-21.531 45.852-33.883 75.75-33.883h803.328c60.844 0 110.336 49.492 110.336 110.336v80.336c0 193.719-157.609 351.328-351.336 351.328zM957.844-17.664c0-27.758-22.578-50.336-50.336-50.336h-803.328c-12.406 0-23.047 4.5-29.969 12.672-6.922 8.164-9.609 19.406-7.57 31.641l134.258 805.516c4.891 29.367 34.172 54.172 63.945 54.172h160.664c27.758 0 50.336-22.578 50.336-50.336v-50.336h-100.664v2.133c0 16.57-13.438 30-30 30-16.57 0-30-13.43-30-30v-32.133c0-16.563 13.43-30 30-30h130.664v-50.328c0-27.758-22.578-50.336-50.336-50.336-60.836 0-110.328-49.492-110.328-110.336v-401.656c0-16.57 13.43-30 30-30 16.563 0 30 13.43 30 30 0 160.633 130.688 291.328 291.328 291.328s291.336-130.695 291.336-291.328z" />
<glyph unicode="&#xe919;" glyph-name="barbell" d="M635.295 507.295c-7.82 7.8-20.48 7.8-28.28 0-7.82-7.82-7.82-20.48 0-28.278 7.8-7.82 20.46-7.82 28.28 0 7.8 7.8 7.8 20.458 0 28.278zM1000.546 504.877l-28.28 28.278c1.042 1.524 31.718 26.504 31.718 73.128 0 26.716-10.408 51.828-29.302 70.71l-14.142 14.142 14.132 14.144c39.082 39.026 39.122 102.348 0.014 141.402-39.066 39.092-102.32 39.116-141.396 0.012l-14.158-14.148-14.138 14.138c-39.070 39.098-102.342 39.112-141.426 0.004l-2.418-2.418-28.276 28.276c-31.262 31.26-81.858 31.282-113.134 0.006-31.27-31.246-31.286-81.87-0.006-113.126l113.134-113.134-383.161-383.159-113.122 113.122c-31.21 31.26-81.89 31.306-113.126 0.018-31.278-31.254-31.282-81.87-0.004-113.15l28.276-28.276-2.412-2.412c-39.098-39.070-39.112-102.342-0.004-141.426l14.142-14.142-14.132-14.144c-39.082-39.026-39.122-102.348-0.014-141.404 39.066-39.088 102.316-39.118 141.4-0.010l14.158 14.148 14.138-14.138c39.070-39.098 102.342-39.114 141.426-0.004l2.416 2.416 28.276-28.278c31.264-31.262 81.862-31.28 113.136-0.006 31.27 31.246 31.286 81.87 0.006 113.126l-113.134 113.134 383.159 383.159 113.122-113.122c31.21-31.26 81.89-31.306 113.126-0.018 31.278 31.258 31.282 81.874 0.006 113.152zM861.574 818.406c23.382 23.4 61.316 23.526 84.836-0.014 23.44-23.406 23.466-61.378-0.014-84.828l-14.136-14.148-84.844 84.844 14.158 14.146zM691.859 818.406c23.44 23.456 61.394 23.47 84.848-0.004l169.698-169.698c23.456-23.44 23.47-61.394-0.004-84.848l-2.416-2.418-254.548 254.546 2.422 2.422zM162.424-50.406c-23.382-23.4-61.316-23.526-84.836 0.014-23.44 23.406-23.466 61.378 0.014 84.828l14.136 14.148 84.844-84.844-14.158-14.146zM332.139-50.406c-23.44-23.456-61.394-23.47-84.848 0.004l-169.698 169.698c-23.456 23.44-23.47 61.394 0.004 84.848l2.416 2.418 254.546-254.546-2.42-2.422zM475.983-19.714c15.632-15.614 15.644-40.914-0.004-56.548-15.672-15.672-40.962-15.61-56.574 0-16.72 16.72-349.367 349.367-367.667 367.667-15.506 15.506-15.772 40.814 0.012 56.586 15.558 15.584 40.886 15.67 56.54-0.012l367.693-367.693zM362.845 149.995l-84.85 84.85 383.159 383.159 84.85-84.852-383.159-383.157zM972.248 420.009c-15.558-15.584-40.886-15.67-56.54 0.012l-367.693 367.691c-15.63 15.614-15.642 40.914 0.006 56.548 15.672 15.672 40.96 15.61 56.574 0 18.302-18.302 351.213-351.213 367.665-367.667 15.506-15.504 15.772-40.814-0.012-56.584zM578.721 450.719c-7.812 7.812-20.476 7.812-28.286 0l-161.734-161.734c-7.81-7.81-7.81-20.474 0-28.286 7.81-7.81 20.474-7.81 28.284 0l161.734 161.734c7.812 7.812 7.812 20.474 0.002 28.286z" />
<glyph unicode="&#xe91a;" glyph-name="soccer-ball" d="M924.77 686.818c-80.902 110.242-199.89 182.384-335.052 203.132-135.158 20.75-270.308-12.378-380.552-93.28-110.242-80.902-182.384-199.892-203.132-335.052-18.014-117.352 4.61-234.682 63.826-335.722 0.042-0.076 0.088-0.15 0.13-0.226 8.95-15.256 18.716-30.148 29.324-44.604 72.092-98.24 177.040-167.66 295.506-195.47 5.4-1.268 10.814-2.424 16.238-3.514 1.13-0.32 2.284-0.534 3.456-0.654 32.342-6.264 65.046-9.416 97.666-9.416 32.846 0 65.586 3.2 97.756 9.438 0.954 0.114 1.896 0.29 2.82 0.538 44.726 8.936 88.308 23.824 129.434 44.578 9.86 4.976 13.82 17.002 8.842 26.862-4.976 9.86-17.002 13.82-26.862 8.842-24.77-12.5-50.162-22.614-75.898-30.45l82.922 143.758 162.348 30.494c-14.112-19.462-29.856-38.006-47.242-55.4-7.808-7.812-7.806-20.474 0.006-28.28 7.812-7.81 20.472-7.804 28.28 0.004 30.594 30.606 56.932 64.852 78.626 101.746 0.16 0.266 0.322 0.528 0.47 0.8 35.37 60.402 58.238 127.898 66.666 198.308 0.074 0.49 0.13 0.98 0.168 1.472 0.712 6.096 1.344 12.208 1.838 18.346 9.86 122.484-24.796 244.56-97.584 343.75zM583.652 850.418c103.612-15.906 196.894-64.596 268.27-138.976l-24.4-209.782-156.778-35.2-138.214 100.418v150.2l30.794 22.072c8.976 6.434 11.038 18.928 4.604 27.904-6.436 8.976-18.926 11.036-27.904 4.604l-28.814-20.652-137.764 84.29c67.174 20.684 138.682 26.1 210.206 15.122zM381.292 437.33l130.264 94.64 130.264-94.642-49.756-153.134-161.016 0.002-49.756 153.134zM232.83 764.424c29.212 21.438 60.33 39.216 92.79 53.242l165.938-101.528v-149.262l-138.214-100.42-157.396 35.338-32.138 200.882c20.718 22.54 43.782 43.228 69.020 61.748zM45.564 455.55c11.6 75.562 40.65 145.624 84.366 205.714l27.058-169.142-116.908-117.93c-0.496 26.96 1.312 54.158 5.484 81.358zM44.074 321.412l140.678 141.908 157.532-35.368 52.266-160.86-98.372-151.382-195.968 37.618c-29.448 52.346-48.356 109.244-56.136 168.084zM131.558 104.726c-0.524 0.714-1.022 1.44-1.542 2.154l162.848-31.26 83.176-144.176c-95.13 28.68-181.622 87.626-244.482 173.282zM594.612-81.158c-55.118-9.924-110.966-9.77-165.024-0.18l-100.526 174.254 98.31 151.284h169.338l98.31-151.286-100.408-174.072zM923.076 152.318l-195.14-36.654-98.404 151.43 52.268 160.86 157.416 35.342 139.54-143.292c-7.894-58.426-26.532-115.466-55.68-167.686zM982.95 373.020l-116.244 119.372 20.66 177.618c1.732-2.274 3.464-4.546 5.16-6.856 63.156-86.064 92.84-188.62 90.424-290.134zM621.708 809.608c-3.72 3.72-8.878 5.86-14.138 5.86s-10.418-2.14-14.138-5.86c-3.72-3.72-5.86-8.878-5.86-14.138s2.14-10.418 5.86-14.138c3.72-3.74 8.878-5.86 14.138-5.86s10.418 2.12 14.138 5.86c3.72 3.72 5.86 8.878 5.86 14.138s-2.14 10.42-5.86 14.138zM814.878 0.714c-3.72 3.72-8.878 5.86-14.138 5.86s-10.418-2.14-14.138-5.86c-3.72-3.72-5.86-8.878-5.86-14.138s2.14-10.418 5.86-14.138c3.72-3.74 8.876-5.86 14.138-5.86 5.26 0 10.418 2.12 14.138 5.86 3.72 3.72 5.86 8.878 5.86 14.138s-2.14 10.418-5.86 14.138z" />
<glyph unicode="&#xe91b;" d="M995.394 410.14c25.95 25.282 35.108 62.388 23.908 96.82-11.18 34.446-40.398 59.080-76.252 64.29l-221.374 32.166c-11.238 1.64-20.948 8.694-25.972 18.87l-99.002 200.616c-16.030 32.47-48.488 52.64-84.704 52.64s-68.674-20.17-84.704-52.64c0-0.002-99.002-200.614-99.002-200.614-5.024-10.18-14.734-17.234-25.954-18.87l-221.388-32.166c-35.856-5.212-65.074-29.846-76.248-64.274-11.206-34.45-2.048-71.558 23.894-96.832l160.196-156.168c8.126-7.918 11.834-19.324 9.92-30.498l-37.824-220.508c-6.112-35.7 8.286-71.096 37.576-92.372 29.296-21.286 67.416-24.044 99.488-7.198l198.004 104.104c10.044 5.278 22.038 5.276 32.072 0.006l198.020-104.11c32.072-16.848 70.192-14.088 99.488 7.198 29.288 21.278 43.688 56.672 37.576 92.372l-37.826 220.498c-1.914 11.184 1.792 22.59 9.924 30.514z" />
<glyph unicode="&#xe91c;" d="M528.028 7.512l198.020-104.11c32.072-16.848 70.192-14.088 99.488 7.198 29.288 21.278 43.688 56.672 37.576 92.374l-37.826 220.498c-1.914 11.186 1.792 22.59 9.924 30.514l160.184 156.154c25.95 25.282 35.108 62.388 23.908 96.82-11.18 34.446-40.398 59.080-76.252 64.29l-221.374 32.166c-11.238 1.64-20.948 8.694-25.97 18.87l-99.004 200.616c-16.030 32.47-48.488 52.64-84.704 52.64v-864.078c5.508 0 11.014-1.316 16.030-3.952z" />
<glyph unicode="&#xe91d;" glyph-name="gym" d="M972.8 657.067h-34.133v85.333c0 28.228-22.972 51.2-51.2 51.2h-68.267c-28.228 0-51.2-22.972-51.2-51.2v-136.533h-40.175l-3.755 9.557c-18.091 46.029-61.73 75.776-111.189 75.776h-1.621c-7.066 19.814-25.839 34.133-48.060 34.133-13.158 0-25.054-5.137-34.133-13.312-9.079 8.192-20.975 13.312-34.133 13.312s-25.054-5.137-34.133-13.312c-9.079 8.192-20.975 13.312-34.133 13.312s-25.054-5.137-34.133-13.312c-9.079 8.192-20.975 13.312-34.133 13.312-28.228 0-51.2-22.972-51.2-51.2v-68.267h-51.2v136.533c0 28.228-22.972 51.2-51.2 51.2h-68.267c-28.228 0-51.2-22.972-51.2-51.2v-85.333h-34.133c-28.228 0-51.2-22.972-51.2-51.2v-170.667c0-28.228 22.972-51.2 51.2-51.2h34.133v-85.333c0-28.228 22.972-51.2 51.2-51.2h68.267c28.228 0 51.2 22.972 51.2 51.2v136.533h38.707l13.295-42.069c0.597-1.911 1.536-3.703 2.765-5.308l45.551-58.931-29.184-306.62c-1.178-12.237 2.884-24.474 11.162-33.57 8.277-9.079 20.053-14.302 32.358-14.302h231.356c12.339 0 24.149 5.239 32.41 14.387 8.277 9.148 12.322 21.419 11.093 33.707l-29.815 298.172c-0.324 3.123 0.922 6.195 3.294 8.226l93.645 80.265c8.192 7.031 13.943 16.111 17.442 26.044h37.922v-136.533c0-28.228 22.972-51.2 51.2-51.2h68.267c28.228 0 51.2 22.972 51.2 51.2v85.333h34.133c28.228 0 51.2 22.972 51.2 51.2v170.667c0 28.228-22.972 51.2-51.2 51.2zM85.333 418.133h-34.133c-9.421 0-17.067 7.663-17.067 17.067v170.667c0 9.404 7.646 17.067 17.067 17.067h34.133v-204.8zM221.867 588.8v-290.133c0-9.404-7.646-17.067-17.067-17.067h-68.267c-9.421 0-17.067 7.663-17.067 17.067v443.733c0 9.404 7.646 17.067 17.067 17.067h68.267c9.421 0 17.067-7.663 17.067-17.067v-153.6zM546.133 674.133c0 9.404 7.646 17.067 17.067 17.067s17.067-7.663 17.067-17.067v-100.574c0-6.485-3.174-12.339-7.782-15.753-0.495-0.341-0.956-0.717-1.485-1.007-0.905-0.529-1.894-0.819-2.884-1.126-1.092-0.341-2.202-0.58-3.379-0.683-1.382-0.102-2.731 0-4.062 0.205-0.99 0.154-1.98 0.273-2.901 0.58-1.365 0.461-2.628 1.212-3.857 2.031-0.734 0.495-1.536 0.87-2.185 1.468-1.212 1.109-2.099 2.475-2.935 3.857-0.358 0.597-0.87 1.075-1.161 1.724-0.939 2.133-1.502 4.471-1.502 6.878v102.4zM477.867 674.133c0 9.404 7.646 17.067 17.067 17.067s17.067-7.663 17.067-17.067v-102.4c0-9.404-7.646-17.067-17.067-17.067s-17.067 7.663-17.067 17.067v102.4zM409.6 674.133c0 9.404 7.646 17.067 17.067 17.067s17.067-7.663 17.067-17.067v-102.4c0-9.404-7.646-17.067-17.067-17.067s-17.067 7.663-17.067 17.067v102.4zM341.333 588.8v85.333c0 9.404 7.646 17.067 17.067 17.067s17.067-7.663 17.067-17.067v-102.4c0-2.406-0.563-4.745-1.519-6.895-0.29-0.649-0.802-1.126-1.161-1.724-0.836-1.382-1.724-2.731-2.935-3.857-0.631-0.58-1.434-0.973-2.15-1.451-1.246-0.819-2.509-1.587-3.908-2.048-0.887-0.307-1.86-0.41-2.799-0.563-1.365-0.205-2.731-0.324-4.147-0.205-1.161 0.102-2.27 0.341-3.345 0.683-1.007 0.324-1.997 0.614-2.918 1.143-0.529 0.273-0.973 0.649-1.451 0.99-4.608 3.413-7.799 9.284-7.799 15.77v15.223zM256 469.333v102.4h51.2c0-18.739 10.223-34.97 25.276-43.895 0.922-0.563 1.877-1.024 2.833-1.536 1.536-0.785 3.055-1.57 4.659-2.185 1.792-0.717 3.669-1.229 5.564-1.724 1.126-0.29 2.219-0.666 3.379-0.887 0.358-0.068 0.666-0.205 1.024-0.273 1.195-0.205 2.372-0.085 3.567-0.205 1.638-0.154 3.226-0.495 4.898-0.495 0.495 0 0.956 0.137 1.434 0.154 1.57 0.051 3.089 0.29 4.625 0.461 2.048 0.239 4.062 0.512 6.025 0.99 1.468 0.358 2.867 0.853 4.301 1.331 1.911 0.649 3.789 1.365 5.598 2.219 1.382 0.666 2.714 1.417 4.045 2.202 1.707 1.024 3.328 2.116 4.915 3.328 0.717 0.546 1.536 0.922 2.219 1.502 0.341 0.29 0.666 0.563 0.99 0.853 0.99-0.887 2.15-1.587 3.209-2.389 1.058-0.819 2.082-1.655 3.209-2.389 1.604-1.041 3.328-1.877 5.052-2.748 1.143-0.563 2.219-1.212 3.396-1.69 1.98-0.802 4.079-1.365 6.161-1.911 1.058-0.273 2.048-0.683 3.14-0.905 3.226-0.631 6.537-1.007 9.95-1.007s6.724 0.375 9.95 1.007c1.109 0.222 2.116 0.631 3.191 0.922 2.065 0.563 4.147 1.092 6.11 1.894 1.212 0.495 2.304 1.143 3.465 1.724 1.707 0.853 3.413 1.69 5.001 2.714 1.143 0.734 2.167 1.587 3.226 2.406 1.058 0.802 2.202 1.502 3.191 2.389 0.99-0.887 2.133-1.57 3.191-2.389 1.075-0.819 2.099-1.69 3.243-2.423 1.587-1.024 3.294-1.86 5.001-2.714 1.161-0.58 2.253-1.229 3.465-1.724 1.963-0.802 4.028-1.348 6.11-1.894 1.075-0.29 2.099-0.7 3.191-0.922 3.209-0.614 6.519-0.99 9.933-0.99s6.724 0.375 9.95 1.007c1.075 0.222 2.082 0.614 3.14 0.905 2.099 0.563 4.181 1.109 6.161 1.911 1.195 0.478 2.27 1.126 3.413 1.707 1.724 0.853 3.43 1.707 5.035 2.748 1.126 0.734 2.133 1.57 3.209 2.389 1.058 0.802 2.219 1.502 3.209 2.389 0.324-0.29 0.649-0.58 0.99-0.853 0.683-0.58 1.502-0.956 2.202-1.502 1.587-1.212 3.226-2.321 4.966-3.362 1.297-0.768 2.594-1.502 3.959-2.15 1.877-0.905 3.806-1.621 5.803-2.304 1.348-0.461 2.679-0.922 4.062-1.263 2.082-0.512 4.215-0.785 6.366-1.041 1.434-0.171 2.833-0.393 4.284-0.427 0.512-0.017 0.99-0.154 1.519-0.154 1.707 0 3.328 0.341 4.983 0.512 1.161 0.102 2.321 0 3.499 0.188 0.393 0.068 0.751 0.205 1.143 0.273 0.768 0.154 1.502 0.375 2.253 0.563 2.185 0.529 4.301 1.161 6.349 1.98 1.126 0.427 2.219 0.887 3.294 1.399 1.195 0.58 2.355 1.229 3.499 1.894 12.476 7.066 21.76 19.029 24.917 33.417 0.751-1.911 1.263-3.942 1.263-6.093v-61.201l-24.132-24.132h-334.268zM699.733 455.322c0-7.799-3.396-15.172-9.301-20.258l-93.628-80.247c-10.854-9.301-16.486-23.33-15.070-37.564l29.815-298.172c0.358-3.703-1.365-6.229-2.441-7.407-1.058-1.161-3.413-3.14-7.117-3.14h-231.339c-3.686 0-6.042 1.963-7.1 3.14s-2.799 3.686-2.458 7.373l29.833 313.344c0.41 4.318-0.836 8.619-3.482 12.066l-47.821 61.85-9.131 28.894h259.772c8.977 0 17.783 3.635 24.132 10.001l24.132 24.132c6.451 6.451 10.001 15.019 10.001 24.132v61.201c0 22.221-14.319 40.994-34.133 48.060v54.323c34.697-0.597 65.161-21.692 77.892-54.101l6.417-16.128c0.666-1.348 1.024-2.833 1.024-4.301v-127.198zM768 469.333h-34.133v102.4h34.133v-102.4zM904.533 640v-341.333c0-9.404-7.646-17.067-17.067-17.067h-68.267c-9.421 0-17.067 7.663-17.067 17.067v443.733c0 9.404 7.646 17.067 17.067 17.067h68.267c9.421 0 17.067-7.663 17.067-17.067v-102.4zM989.867 435.2c0-9.404-7.646-17.067-17.067-17.067h-34.133v204.8h34.133c9.421 0 17.067-7.663 17.067-17.067v-170.667z" />
<glyph unicode="&#xe91e;" glyph-name="swimming-pool" d="M179.492 190.742l41.531 24.352c18.477 10.836 41.359 10.711 59.711-0.328l38.859-23.359c18.773-11.289 39.883-16.938 61.008-16.938 20.68 0 41.375 5.422 59.883 16.273l41.531 24.352c18.477 10.836 41.359 10.711 59.719-0.328l38.852-23.359c37.172-22.344 83.492-22.594 120.898-0.664l41.531 24.352c18.477 10.836 41.352 10.711 59.711-0.328l38.852-23.359c37.172-22.344 83.492-22.594 120.898-0.664l41.57 24.375-30.344 51.758-41.578-24.375c-18.445-10.82-41.297-10.695-59.625 0.328l-38.859 23.359c-31.375 18.867-69.289 22-102.859 9.32v459.133c0 55.891 45.469 101.359 101.359 101.359h50.867v60h-50.875c-88.969 0-161.352-72.383-161.352-161.359v-49.047h-251.648v49.047c0 55.891 45.469 101.359 101.359 101.359h50.867v60h-50.867c-88.977 0-161.359-72.383-161.359-161.359v-496.047c-2.953 1.172-5.844 2.563-8.625 4.234l-38.852 23.359c-37.188 22.359-83.547 22.617-120.977 0.664l-41.539-24.352c-18.445-10.82-41.297-10.695-59.625 0.328l-38.602 23.203-30.914-51.422 38.602-23.203c37.164-22.344 83.484-22.594 120.891-0.664zM611.508 242.828l-38.859 23.359c-37.188 22.359-83.547 22.617-120.977 0.664l-32.539-19.078v163.125h251.648v-168.594c-18.391-10.617-41.063-10.43-59.273 0.523zM670.773 625.594v-154.695h-251.641v154.695zM179.492 39.508l41.531 24.352c18.477 10.836 41.359 10.711 59.711-0.328l38.859-23.359c37.164-22.344 83.484-22.594 120.891-0.664l41.531 24.352c18.477 10.836 41.359 10.711 59.719-0.328l38.852-23.359c37.164-22.344 83.484-22.602 120.898-0.664l41.531 24.352c18.477 10.836 41.352 10.711 59.711-0.328l38.852-23.359c18.781-11.289 39.891-16.938 61.008-16.938 20.688 0 41.383 5.422 59.891 16.273l41.57 24.375-30.352 51.758-41.57-24.375c-18.453-10.82-41.297-10.695-59.625 0.328l-38.859 23.359c-37.188 22.367-83.539 22.617-120.977 0.664l-41.531-24.352c-18.445-10.82-41.297-10.695-59.625 0.328l-38.852 23.359c-37.195 22.367-83.555 22.617-120.984 0.664l-41.531-24.352c-18.445-10.82-41.297-10.695-59.625 0.328l-38.852 23.359c-37.195 22.367-83.555 22.617-120.984 0.664l-41.531-24.352c-18.453-10.82-41.297-10.695-59.625 0.328l-38.602 23.203-30.922-51.414 38.602-23.211c37.164-22.344 83.484-22.602 120.891-0.664zM932.125-59.969c-18.453-10.82-41.297-10.695-59.625 0.328l-38.859 23.359c-37.188 22.367-83.547 22.625-120.977 0.672l-41.531-24.359c-18.453-10.82-41.297-10.695-59.625 0.328l-38.859 23.359c-37.188 22.367-83.547 22.617-120.977 0.672l-41.531-24.359c-18.445-10.813-41.297-10.695-59.625 0.328l-38.859 23.359c-37.188 22.367-83.547 22.617-120.977 0.672l-41.531-24.359c-18.453-10.813-41.297-10.695-59.625 0.328l-38.602 23.211-30.922-51.422 38.602-23.211c37.156-22.336 83.484-22.594 120.891-0.664l41.531 24.359c18.477 10.836 41.359 10.703 59.711-0.328l38.859-23.367c37.164-22.344 83.484-22.594 120.891-0.664l41.531 24.359c18.477 10.836 41.359 10.703 59.719-0.328l38.852-23.367c37.164-22.336 83.484-22.594 120.898-0.664l41.531 24.359c18.477 10.836 41.352 10.703 59.711-0.328l38.852-23.367c18.781-11.289 39.891-16.938 61.008-16.938 20.688 0 41.383 5.422 59.891 16.273l41.57 24.383-30.352 51.758z" />
<glyph unicode="&#xe91f;" glyph-name="right-arrow1" d="M320.695-66.878c-6.35-6.35-14.288-9.526-23.020-9.526s-16.67 3.175-23.020 9.526c-12.701 12.701-12.701 33.34 0 46.040l404.837 404.837-404.837 404.837c-12.701 12.701-12.701 33.34 0 46.040s33.34 12.701 46.040 0l427.857-427.857c12.701-12.701 12.701-33.34 0-46.040l-427.857-427.857z" />
<glyph unicode="&#xe920;" glyph-name="star" d="M995.394 410.14c25.95 25.282 35.108 62.388 23.908 96.82-11.18 34.446-40.398 59.080-76.252 64.29l-221.374 32.166c-11.238 1.64-20.948 8.694-25.972 18.87l-99.002 200.616c-16.032 32.47-48.488 52.64-84.704 52.64s-68.672-20.17-84.704-52.64c0-0.002-99.002-200.614-99.002-200.614-5.024-10.18-14.734-17.234-25.954-18.87l-221.388-32.166c-35.856-5.212-65.074-29.846-76.248-64.274-11.206-34.45-2.048-71.558 23.894-96.832l160.196-156.168c8.126-7.918 11.834-19.324 9.92-30.498l-37.824-220.508c-6.112-35.7 8.286-71.096 37.576-92.372 29.296-21.286 67.416-24.044 99.488-7.198l198.004 104.104c10.044 5.278 22.038 5.276 32.072 0.006l198.020-104.11c32.072-16.848 70.192-14.088 99.488 7.198 29.288 21.278 43.688 56.672 37.576 92.372l-37.826 220.498c-1.914 11.184 1.792 22.59 9.924 30.514zM766.146 213.344l37.83-220.516c2.262-13.208-2.86-25.808-13.704-33.686-6.020-4.374-12.994-6.684-20.172-6.684-3.146 0-9.174 0.398-16.148 4.062l-198.002 104.1c-13.516 7.098-28.706 10.844-43.948 10.844-15.25 0-30.45-3.75-43.95-10.844l-198.022-104.112c-13.602-7.146-27.214-3.97-36.296 2.63-10.848 7.88-15.97 20.48-13.706 33.708l37.822 220.488c5.248 30.668-4.916 61.916-27.182 83.614l-160.188 156.16c-9.612 9.366-12.868 22.56-8.72 35.308 4.146 12.772 14.542 21.528 27.822 23.458l221.38 32.166c30.796 4.492 57.374 23.812 71.134 51.69l99 200.608c5.936 12.024 17.49 19.202 30.904 19.202s24.968-7.178 30.904-19.202l98.998-200.606c13.764-27.882 40.348-47.202 71.114-51.69 49.078-7.126 143.076-20.774 221.398-32.168 13.286-1.93 23.682-10.692 27.82-23.438 4.156-12.774 0.896-25.964-8.708-35.322l-160.198-156.168c-22.266-21.696-32.428-52.952-27.182-83.602z" />
<glyph unicode="&#xe921;" glyph-name="calendar" d="M15 148.336c8.281 0 15 6.711 15 15v436.883h886.258v-164.883c0-8.289 6.719-15 15-15 8.289 0 15 6.711 15 15v296.445c0 50.289-40.914 91.203-91.195 91.203h-39.336v18.578c0 20.094-16.344 36.437-36.437 36.437h-27.867c-20.086 0-36.43-16.344-36.43-36.437v-18.578h-99.484v18.578c0 20.094-16.344 36.437-36.437 36.437h-27.867c-20.086 0-36.43-16.344-36.43-36.437v-18.578h-99.492v18.578c0 20.094-16.344 36.437-36.437 36.437h-27.859c-20.094 0-36.437-16.344-36.437-36.437v-18.578h-99.484v18.578c0 20.094-16.344 36.437-36.437 36.437h-27.859c-20.094 0-36.437-16.344-36.437-36.437v-18.578h-23.125c-50.289 0-91.203-40.914-91.203-91.203v-568.445c0-8.289 6.719-15 15-15zM744.992 841.562c0 3.547 2.891 6.437 6.437 6.437h27.867c3.547 0 6.43-2.891 6.43-6.437v-72.875c0-3.547-2.883-6.437-6.43-6.437h-27.867c-3.547 0-6.437 2.883-6.437 6.437zM544.773 841.562c0 3.547 2.883 6.437 6.43 6.437h27.867c3.547 0 6.437-2.891 6.437-6.437v-72.875c0-3.547-2.891-6.437-6.437-6.437h-27.867c-3.547 0-6.43 2.883-6.43 6.437zM344.547 841.562c0 3.547 2.891 6.437 6.437 6.437h27.867c3.547 0 6.437-2.891 6.437-6.437v-72.875c0-3.547-2.891-6.437-6.437-6.437h-27.867c-3.547 0-6.437 2.883-6.437 6.437zM144.328 841.562c0 3.547 2.891 6.437 6.437 6.437h27.867c3.547 0 6.43-2.891 6.43-6.437v-72.875c0-3.547-2.883-6.437-6.43-6.437h-27.867c-3.547 0-6.437 2.883-6.437 6.437zM91.203 792.984h23.125v-24.297c0-20.094 16.344-36.437 36.437-36.437h27.867c20.086 0 36.43 16.344 36.43 36.437v24.297h99.492v-24.297c0-20.094 16.344-36.437 36.43-36.437h27.867c20.094 0 36.437 16.344 36.437 36.437v24.297h99.484v-24.297c0-20.094 16.344-36.437 36.437-36.437h27.867c20.086 0 36.43 16.344 36.43 36.437v24.297h99.484v-24.297c0-20.094 16.344-36.437 36.437-36.437h27.867c20.086 0 36.43 16.344 36.43 36.437v24.297h39.336c33.75 0 61.203-27.453 61.203-61.203v-101.562h-886.266v101.562c0 33.75 27.453 61.203 61.203 61.203zM169.82 8.836h-130.797c-4.977 0-9.023 4.047-9.023 9.023v77.117c0 8.289-6.719 15-15 15s-15-6.711-15-15v-77.117c0-21.516 17.508-39.023 39.023-39.023h130.797c8.281 0 15 6.719 15 15 0 8.289-6.719 15-15 15zM169.32 556.477h-52.141c-8.281 0-15-6.719-15-15 0-8.289 6.719-15 15-15h52.141c8.281 0 15 6.711 15 15 0 8.281-6.719 15-15 15zM277.414 526.477h52.141c8.281 0 15 6.711 15 15 0 8.281-6.719 15-15 15h-52.141c-8.281 0-15-6.719-15-15 0-8.289 6.719-15 15-15zM437.648 526.477h52.133c8.281 0 15 6.711 15 15 0 8.281-6.719 15-15 15h-52.133c-8.289 0-15-6.719-15-15 0-8.289 6.711-15 15-15zM597.875 526.477h52.141c8.281 0 15 6.711 15 15 0 8.281-6.719 15-15 15h-52.141c-8.281 0-15-6.719-15-15 0-8.289 6.719-15 15-15zM810.242 556.477h-52.133c-8.289 0-15-6.719-15-15 0-8.289 6.711-15 15-15h52.133c8.281 0 15 6.711 15 15 0 8.281-6.719 15-15 15zM169.32 481.047h-52.141c-8.281 0-15-6.711-15-15s6.719-15 15-15h52.141c8.281 0 15 6.711 15 15s-6.719 15-15 15zM277.414 451.047h52.141c8.281 0 15 6.711 15 15s-6.719 15-15 15h-52.141c-8.281 0-15-6.711-15-15s6.719-15 15-15zM437.648 451.047h52.133c8.281 0 15 6.711 15 15s-6.719 15-15 15h-52.133c-8.289 0-15-6.711-15-15s6.711-15 15-15zM597.875 451.047h52.141c8.281 0 15 6.711 15 15s-6.719 15-15 15h-52.141c-8.281 0-15-6.711-15-15s6.719-15 15-15zM810.242 481.047h-52.133c-8.289 0-15-6.711-15-15s6.711-15 15-15h52.133c8.281 0 15 6.711 15 15s-6.719 15-15 15zM277.781 156.57l77.125-77.125c11.156-11.156 25.984-17.297 41.766-17.297s30.617 6.141 41.766 17.297l211.211 211.211c23.031 23.031 23.031 60.508 0 83.539s-60.508 23.031-83.539 0l-169.437-169.437-35.359 35.352c-23.023 23.031-60.5 23.031-83.539 0-23.023-23.031-23.023-60.508 0.008-83.539zM298.992 218.898c5.664 5.664 13.109 8.5 20.555 8.5s14.891-2.836 20.555-8.5l45.961-45.961c5.859-5.859 15.352-5.859 21.211 0l180.047 180.039c11.344 11.336 29.781 11.336 41.109 0.008 11.336-11.336 11.336-29.781 0-41.117l-211.203-211.203c-5.492-5.492-12.789-8.516-20.555-8.516s-15.062 3.023-20.555 8.516l-77.125 77.125c-11.336 11.336-11.336 29.773 0 41.109zM946.258 247.281v119.695c0 8.289-6.711 15-15 15-8.281 0-15-6.711-15-15v-100.562c-27.352 14.18-58.391 22.203-91.266 22.203-109.734 0-199.008-89.273-199.008-199.008 0-28.742 6.133-56.070 17.141-80.773h-404.953c-8.281 0-15-6.711-15-15 0-8.281 6.719-15 15-15h421.57c35.758-53.18 96.484-88.234 165.25-88.234 109.734 0 199.008 89.273 199.008 199.008 0 64.125-30.5 121.258-77.742 157.672zM824.992-79.398c-93.195 0-169.008 75.812-169.008 169.008s75.82 169.008 169.008 169.008 169.008-75.812 169.008-169.008c0-93.195-75.82-169.008-169.008-169.008zM824.992 236.945c-81.242 0-147.336-66.102-147.336-147.336 0-81.242 66.094-147.336 147.336-147.336s147.328 66.094 147.328 147.336c0 81.234-66.094 147.336-147.328 147.336zM838.422-26.93c0.992 2.008 1.57 4.258 1.57 6.648v18.273c0 8.281-6.719 15-15 15s-15-6.719-15-15v-18.273c0-2.391 0.57-4.641 1.57-6.648-53.984 6.18-96.93 49.125-103.109 103.109 2-1 4.258-1.57 6.648-1.57h18.266c8.289 0 15 6.711 15 15s-6.711 15-15 15h-18.266c-2.391 0-4.648-0.578-6.648-1.57 6.18 53.984 49.125 96.93 103.109 103.109-1-2.008-1.57-4.258-1.57-6.648v-18.273c0-8.289 6.719-15 15-15s15 6.711 15 15v18.273c0 2.391-0.578 4.641-1.57 6.648 53.984-6.18 96.93-49.125 103.109-103.109-2.008 0.992-4.258 1.57-6.648 1.57h-18.273c-8.281 0-15-6.711-15-15s6.719-15 15-15h18.273c2.391 0 4.641 0.57 6.648 1.57-6.187-53.984-49.125-96.93-103.109-103.109zM858.055 104.609h-18.062v15.383c0 8.281-6.719 15-15 15-8.289 0-15-6.719-15-15v-30.383c0-8.289 6.711-15 15-15h33.062c8.281 0 15 6.711 15 15s-6.719 15-15 15z" />
<glyph unicode="&#xe922;" glyph-name="online" d="M972.704 705.364h-343.691c-15.135 46.579-59.043 80.031-110.031 80.031-0.699 0-1.38-0.041-2.067-0.047-0.693 0.006-1.374 0.047-2.072 0.047-52.121 0-96.546-33.47-112.99-80.031h-351.182c-10.491 0-18.986-8.501-18.986-18.98v-516.182c0-10.479 8.495-18.986 18.986-18.986h346.99v-119.765h-55.145c-10.479 0-18.98-8.501-18.98-18.986 0-10.479 8.501-18.98 18.98-18.98h329.061c10.479 0 18.98 8.501 18.98 18.98 0 10.485-8.501 18.986-18.98 18.986h-45.399v119.765h346.526c10.485 0 18.98 8.507 18.98 18.986v516.182c0 10.479-8.495 18.98-18.98 18.98zM519.305 507.892h-8.924c-43.057 2.319-77.378 38.078-77.378 81.704v33.294c14.407-2.9 27.070-4.374 38.055-4.374 10.955 0 20.29 1.444 28.086 4.315 5.795 2.137 11.431 4.303 16.861 6.393 27.317 10.503 50.888 19.573 70.573 14.947 3.229-0.763 6.587-0.998 10.104-0.71v-53.865c0-43.626-34.321-79.386-77.378-81.704zM595.086 681.693c-0.411-0.129-0.763-0.241-0.986-0.294-30.652 6.757-60.329-4.656-91.72-16.732-5.325-2.055-10.779-4.145-16.362-6.205-4.656-1.714-18.781-4.585-52.99 3.252 0.129 46.597 37.526 84.558 83.888 85.661 38.689-0.963 70.796-28.89 78.17-65.683zM69.658 667.397h325.427c-0.006-0.599-0.041-1.204-0.041-1.808v-75.992c0-31.556 12.282-60.288 32.307-81.704h-7.245c-52.685 0-101.16-26.442-129.705-70.714-30.458-47.266-46.556-101.965-46.556-158.19v-89.806h-174.188zM588.217 31.45h-152.583v119.765h152.583zM669.141 189.182v131.254c0 10.479-8.495 18.98-18.98 18.98s-18.98-8.501-18.98-18.98v-131.254h-232.667v131.254c0 10.479-8.495 18.98-18.986 18.98-10.479 0-18.98-8.501-18.98-18.98v-131.254h-78.728v89.806c0 48.916 14.002 96.505 40.491 137.618 21.523 33.387 58.074 53.313 97.791 53.313h75.757v-74.096c0-10.479 8.507-18.986 18.986-18.986 10.485 0 18.986 8.507 18.986 18.986v74.096h73.256c39.716 0 76.274-19.926 97.785-53.313 26.501-41.114 40.503-88.703 40.503-137.618v-89.806zM953.718 189.182h-170.378v89.806c0 56.225-16.098 110.924-46.556 158.19-28.538 44.272-77.020 70.714-129.699 70.714h-4.738c20.014 21.417 32.307 50.149 32.307 81.704v75.992c0 0.605-0.041 1.209-0.047 1.808h319.11zM257.959 606.634c0 10.491-8.495 18.986-18.98 18.986h-92.648c-10.479 0-18.98-8.495-18.98-18.986v-97.045c0-10.479 8.501-18.986 18.98-18.986 10.491 0 18.986 8.507 18.986 18.986v78.065h73.661c10.485 0 18.98 8.501 18.98 18.98zM302.419 591.716l0.499-0.382c3.434-2.607 7.468-3.875 11.477-3.875 5.724 0 11.389 2.589 15.123 7.491 6.341 8.342 4.726 20.254-3.616 26.607l-0.499 0.376c-8.348 6.352-20.254 4.726-26.601-3.616-6.352-8.342-4.732-20.249 3.616-26.601zM526.838 335.354l-0.493 0.382c-8.354 6.341-20.26 4.726-26.601-3.616-6.352-8.342-4.732-20.254 3.611-26.607l0.505-0.376c3.434-2.613 7.468-3.875 11.477-3.875 5.724 0 11.389 2.577 15.123 7.491 6.341 8.342 4.72 20.249-3.622 26.601z" />
<glyph unicode="&#xe923;" glyph-name="coach" d="M981.069 123.109c-14.861 85.863-80.909 153.562-166.772 171.725l-183.284 39.629c-1.651 0-1.651 0-3.302 0v104.026c51.187 36.326 82.56 97.421 82.56 160.167v99.072c0 108.979-89.165 198.144-198.144 198.144s-198.144-89.165-198.144-198.144v-99.072c0-64.397 31.373-123.84 82.56-160.167v-104.026c-1.651 0-1.651 0-3.302 0l-183.284-37.978c-85.863-18.163-151.911-85.863-166.772-171.725l-42.931-232.82c-1.651-8.256 4.954-18.163 13.21-19.814 1.651 0 1.651 0 3.302 0h990.722c9.907 0 16.512 6.605 16.512 16.512 0 1.651 0 1.651 0 3.302l-42.931 231.168zM512.127 862.848c79.258 0 145.306-54.49 161.818-132.096h-323.636c16.512 77.607 82.56 132.096 161.818 132.096zM670.642 697.728l-49.536-49.536h-217.959l-49.536 49.536h317.031zM347.007 598.655v59.443l37.978-37.978c3.302-3.302 6.605-4.954 11.558-4.954h231.168c4.954 0 8.256 1.651 11.558 4.954l37.978 37.978v-59.443c0-90.816-74.304-165.12-165.12-165.12s-165.12 74.304-165.12 165.12zM594.687 418.674v-110.631l-11.558-11.558c-18.163-18.163-44.582-29.722-69.351-29.722h-3.302c-26.419 0-51.187 9.907-69.351 29.722l-11.558 11.558v110.631c26.419-11.558 54.49-18.163 82.56-18.163s56.141 6.605 82.56 18.163zM363.519 293.183l28.070 6.605 24.768-26.419c24.768-24.768 57.792-37.978 94.119-37.978h3.302c34.675 0 69.351 13.21 94.119 37.978l26.419 26.419 28.070-6.605v-52.839l-87.514-115.584c-29.722 34.675-80.909 37.978-115.584 8.256-3.302-3.302-4.954-4.954-8.256-8.256l-87.514 115.584v52.839zM512.127 20.734c-28.070 0-49.536 21.466-49.536 49.536s21.466 49.536 49.536 49.536c28.070 0 49.536-21.466 49.536-49.536v-99.072h-33.024v33.024c0 9.907-6.605 16.512-16.512 16.512zM247.934-94.85h-211.354l6.605 33.024h204.749v-33.024zM743.295-96.501h-462.337v216.308h-33.024v-148.608h-199.796l26.419 146.957c13.21 72.653 69.351 130.445 142.003 145.306l113.933 24.768v-52.839c0-3.302 1.651-6.605 3.302-9.907l99.072-132.096c-1.651-6.605-3.302-14.861-3.302-23.117 0-39.629 28.070-72.653 66.048-80.909v-34.675c0-9.907 6.605-16.512 16.512-16.512h66.048c9.907 0 16.512 6.605 16.512 16.512v115.584c0 8.256-1.651 16.512-3.302 23.117l99.072 132.096c1.651 3.302 3.302 6.605 3.302 9.907v51.187l113.933-24.768c72.653-14.861 128.794-72.653 142.003-145.306l26.419-146.957h-199.796v148.608h-33.024v-214.656zM776.319-94.85v33.024h204.749l6.605-33.024h-211.354zM495.615 86.782h33.024v-33.024h-33.024v33.024z" />
<glyph unicode="&#xe924;" glyph-name="swimmer-1" d="M299.432 166.998c-78.298 0-142-50.774-142-113.184 0-62.412 63.702-113.186 142-113.186s142 50.774 142 113.186c0 62.412-63.702 113.184-142 113.184zM299.432-29.372c-61.758 0-112 37.316-112 83.186 0 45.868 50.242 83.184 112 83.184s112-37.316 112-83.184c0-45.868-50.242-83.186-112-83.186zM315.090 116.080l-3.554-29.79c32.126-3.834 49.896-21.636 49.896-32.476h30c0 30.304-32.82 57.068-76.342 62.266zM237.924 100.456c-11.958-7.546-20.942-17.096-25.98-27.618l27.054-12.96c2.56 5.344 7.866 10.746 14.938 15.21l-16.012 25.368zM292.588 116.826c-11.738-0.598-23.008-2.726-33.496-6.328l9.746-28.374c7.834 2.692 16.338 4.286 25.274 4.742l-1.524 29.96zM748.568 219.57c-97.874 0-180.322-53.122-203.498-124.756h-66.14c-23.178 71.634-105.626 124.756-203.498 124.756-115.794 0-210-74.358-210-165.756s94.206-165.756 210-165.756c97.874 0 180.322 53.122 203.498 124.756h66.14c23.178-71.634 105.626-124.756 203.498-124.756 115.794 0 210 74.358 210 165.756s-94.204 165.756-210 165.756zM275.432-81.944c-99.252 0-180 60.9-180 135.756s80.748 135.756 180 135.756c99.252 0 180-60.9 180-135.756s-80.748-135.756-180-135.756zM538.568 42.816h-53.136v22h53.136v-22zM748.568-81.944c-99.252 0-180 60.9-180 135.756s80.748 135.756 180 135.756c99.252 0 180-60.9 180-135.756s-80.748-135.756-180-135.756zM724.568 166.998c-78.298 0-142-50.774-142-113.184 0-62.412 63.702-113.186 142-113.186s142 50.774 142 113.186c0 62.412-63.7 113.184-142 113.184zM724.568-29.372c-61.758 0-112 37.316-112 83.186 0 45.868 50.242 83.184 112 83.184s112-37.316 112-83.184c0-45.868-50.242-83.186-112-83.186zM703.068 115.242c-11.86-1.982-22.902-5.576-32.816-10.682l13.734-26.672c7.15 3.682 15.234 6.294 24.028 7.764l-4.946 29.59zM725.562 116.998l-0.218-30c36.806-0.268 61.224-20.15 61.224-33.182h30c0 30.192-36.568 62.782-91.006 63.182zM650.456 90.738c-11.534-10.898-17.888-24.012-17.888-36.924h30c0 4.51 3.094 10.020 8.49 15.118l-20.602 21.806zM50.432 70.16v30h-50.432v-92.678h50.432v30h-20.432v32.678zM883.216 739.156c-90.786 90.786-211.492 140.784-339.882 140.784h-62.668c-128.39 0-249.096-49.998-339.882-140.784s-140.784-211.49-140.784-339.882v-141.268h1024v141.268c0 128.392-49.998 249.096-140.784 339.882zM994 288.008h-964v111.268c0 248.498 202.168 450.664 450.666 450.664h62.668c248.498 0 450.666-202.166 450.666-450.666v-111.266zM259.18 337.998h117.24v-30h-117.24v30zM756.002 773.68l-14.86-26.062c8.338-4.752 16.61-9.874 24.586-15.218l16.7 24.924c-8.574 5.742-17.466 11.246-26.426 16.356zM799.358 745.384l-17.872-24.096c7.708-5.718 15.312-11.79 22.596-18.048l19.55 22.754c-7.826 6.724-15.992 13.248-24.274 19.39zM839.020 712.128l-20.614-21.796c48.422-45.79 84.954-103.218 105.64-166.078l28.496 9.378c-22.24 67.576-61.496 129.298-113.522 178.496zM47.953 443.867l21.213 21.213 141.461-141.461-21.213-21.213-141.461 141.461zM575.069 316.523l115.481 480.042 29.171-7.017-115.481-480.042-29.171 7.017zM304.363 789.489l29.169 7.014 115.429-480.032-29.169-7.014-115.429 480.032zM813.362 323.603l141.461 141.461 21.213-21.213-141.461-141.461-21.213 21.213zM480.664 829.94c-2.372 0-4.744-0.020-7.114-0.058l0.484-29.996c2.208 0.036 4.42 0.054 6.63 0.054h23.126v30h-23.126zM452.862 829.062c-10.314-0.654-20.716-1.69-30.918-3.078l4.042-29.726c9.494 1.292 19.174 2.256 28.774 2.864l-1.898 29.94zM543.334 829.94h-19.542v-30h19.542c36.72 0 73.018-4.936 107.886-14.67l8.068 28.894c-37.494 10.47-76.506 15.776-115.954 15.776zM973.568 116.222v-30h20.432v-32.682h-20.432v-30h50.432v92.682z" />
<glyph unicode="&#xe925;" glyph-name="sports-and-competition-1" d="M703.999 384c0-70.593 57.407-128 128-128s128 57.407 128 128-57.407 128-128 128-128-57.405-128-128zM831.999 448.001c35.282 0 63.999-28.72 63.999-63.999s-28.72-63.999-63.999-63.999-63.999 28.72-63.999 63.999 28.717 63.999 63.999 63.999zM32.002 128c51.938 0 76.437-13.095 104.814-28.218 31.407-16.781 66.999-35.781 134.937-35.781 67.969 0 103.594 19 135 35.781 28.374 15.125 52.905 28.218 104.843 28.218 52.063 0 76.594-13.095 105.032-28.249 31.468-16.749 67.124-35.75 135.157-35.75 68.062 0 103.719 19 135.187 35.75 28.438 15.157 52.969 28.249 105.032 28.249 17.687 0 31.999 14.312 31.999 31.999s-14.312 31.999-31.999 31.999c-68.031 0-103.687-19-135.125-35.75-28.47-15.157-53.030-28.249-105.093-28.249s-76.626 13.095-105.032 28.249c-31.468 16.749-67.124 35.75-135.157 35.75-67.969 0-103.562-19-134.969-35.781-28.374-15.125-52.905-28.22-104.875-28.22-51.938 0-76.437 13.095-104.814 28.22-31.407 16.781-66.999 35.781-134.937 35.781-17.69 0.002-32.002-14.31-32.002-31.997s14.312-32.002 32.002-32.002zM177.882 214.611l379.773 187.215c11.218 5.535 18.376 17.351 18.376 30.35l-0.032 165.199c0 7.203 2.28 14.339 6.405 20.134l96.001 134.074c10.562 14.8 30.625 17.812 44.812 6.68 6.844-5.336 11.25-13.16 12.468-22.035 1.188-8.872-0.968-17.681-6.094-24.883l-83.188-116.23c-4.157-5.792-6.405-12.831-6.405-20.102l-0.027-351.308c2.194-1.156 4.629-2.308 6.778-3.453 17.774-9.485 34.777-17.737 57.219-22.907l0.032 366.503 76.782 107.258c15.407 21.512 21.876 47.999 18.251 74.586-3.625 26.616-16.906 50.125-37.405 66.234-17.269 13.585-37.535 20.12-57.643 20.075-29.122-0.066-57.907-13.933-76.762-40.179l-96.001-134.106c-12.406-17.319-19.218-38.73-19.218-60.34l0.032-143.918-397.658-196.022c-4.956-2.446-8.661-6.278-11.702-10.587 26.057-7.082 46.262-17.013 64.265-26.632 3.686-1.965 7.321-3.734 10.944-5.608zM991.998 64.001c-68.031 0-103.687-19-135.125-35.75-28.47-15.157-53.030-28.249-105.093-28.249s-76.626 13.095-105.032 28.249c-31.468 16.749-67.124 35.75-135.157 35.75-67.969 0-103.562-19-134.969-35.781-28.374-15.125-52.905-28.22-104.875-28.22-51.938 0-76.437 13.095-104.814 28.218-31.407 16.781-66.999 35.781-134.937 35.781-17.685 0.002-31.997-14.31-31.997-31.997s14.312-31.999 31.999-31.999c51.938 0 76.437-13.095 104.814-28.218 31.407-16.781 66.999-35.781 134.937-35.781 67.969 0 103.594 19 135 35.781 28.374 15.125 52.905 28.218 104.843 28.218 52.063 0 76.594-13.095 105.032-28.249 31.468-16.749 67.124-35.75 135.157-35.75 68.062 0 103.719 19 135.187 35.75 28.438 15.157 52.969 28.249 105.032 28.249 17.687 0 31.999 14.312 31.999 31.999s-14.314 31.999-32.002 31.999z" />
<glyph unicode="&#xe926;" glyph-name="swimmer" d="M176.796 511.761v-255.524c0-5.303 4.315-9.618 9.618-9.618h162.564l113.525 85.144c22.938 17.207 53.038 20.857 79.027 10.978l142.564 142.566c6.306 6.304 16.524 6.304 22.828 0s6.304-16.524 0-22.826l-137.020-137.022 48.822-36.617 175.552 175.554c6.306 6.304 16.524 6.304 22.828 0s6.304-16.524 0-22.826l-172.292-172.294 30.208-22.656h162.564c5.303 0 9.618 4.315 9.618 9.618v175.423c0 8.914 7.225 16.141 16.141 16.141s16.141-7.227 16.141-16.141v-175.423c0-23.103-18.795-41.9-41.9-41.9h-167.944c-3.493 0-6.891 1.132-9.685 3.228l-117.829 88.372c-17.734 13.3-42.512 13.305-60.254 0l-117.829-88.372c-2.794-2.096-6.192-3.228-9.685-3.228h-167.944c-23.103 0-41.9 18.797-41.9 41.9v255.522c0 23.103 18.795 41.898 41.9 41.898h651.17c23.103 0 41.9-18.795 41.9-41.898 0-8.914-7.225-16.141-16.141-16.141s-16.141 7.227-16.141 16.141c0 5.303-4.315 9.616-9.618 9.616h-651.17c-5.303 0.002-9.618-4.313-9.618-9.616zM1024 486.757v-163.403c0-8.914-7.225-16.141-16.141-16.141h-51.099v-50.976c0-65.712-53.462-119.174-119.176-119.174h-167.942c-20.082 0-39.987 6.635-56.051 18.683l-71.463 53.598c-8.759 6.571-19.178 10.044-30.128 10.044-10.948 0-21.367-3.474-30.126-10.044l-71.465-53.598c-16.062-12.048-35.967-18.683-56.049-18.683h-167.946c-65.712 0-119.174 53.462-119.174 119.174v50.976h-51.099c-8.916 0-16.141 7.227-16.141 16.141v163.403c0 8.914 7.225 16.141 16.141 16.141h51.099v8.863c0 65.712 53.462 119.174 119.174 119.174h651.168c65.714 0 119.176-53.462 119.176-119.174v-8.863h51.101c8.914 0 16.141-7.227 16.141-16.141zM67.24 339.495v131.121h-34.958v-131.121h34.958zM924.477 511.761c0 47.911-38.98 86.892-86.894 86.892h-651.17c-47.914 0-86.892-38.98-86.892-86.892v-255.524c0-47.911 38.978-86.892 86.892-86.892h167.944c13.141 0 26.166 4.343 36.679 12.226l71.465 53.598c14.392 10.793 31.508 16.501 49.495 16.501 17.99 0 35.108-5.705 49.498-16.501l71.463-53.598c10.513-7.886 23.54-12.226 36.681-12.226h167.942c47.914 0 86.894 38.98 86.894 86.892v255.524zM991.718 470.616h-34.958v-131.121h34.958v131.121z" />
<glyph unicode="&#xe927;" glyph-name="sports-and-competition" d="M993.322 63.482h-33.488c-5.746 46.924-38.518 85.596-82.226 99.938 32.138 33.912 51.894 79.668 51.894 129.968 0 27.306-5.696 53.656-16.932 78.322-3.428 7.526-12.31 10.856-19.852 7.424-7.532-3.43-10.856-12.32-7.424-19.852 9.446-20.738 14.234-42.906 14.234-65.896 0-50.062-23.25-94.782-59.504-123.976h-199.32c-19.286 15.534-34.868 35.476-45.246 58.268h126.218c36.23 0 65.708 29.478 65.708 65.708s-29.478 65.708-65.708 65.708h-126.206c25.060 55.060 80.57 93.446 144.904 93.446 39.944 0 78.14-14.858 107.552-41.838 6.102-5.598 15.582-5.188 21.174 0.912 5.596 6.1 5.188 15.58-0.912 21.174-19.718 18.088-42.758 31.588-67.618 39.924 1.338 25.82 6.554 48.528 9.942 60.968h13.924c35.992 0 65.272 29.282 65.272 65.274 0 35.99-29.28 65.274-65.272 65.274-19.728 0-38.876-7.036-53.906-19.808l-7.334-6.232c-9.62-8.174-21.872-12.676-34.498-12.676h-27.696c-25.316 0-45.916-20.596-45.916-45.914s20.6-45.916 45.916-45.916h21.316c-11.934-16.274-21.782-34.002-27.76-56.806-60.74-15.182-109.936-59.806-131.49-117.78h-102.144c-17.94 48.252-55.038 87.244-101.992 107.728 2.514 11.67 5.722 22.882 9.4 33.614l53.408-16.688c13.834-4.832 28.368-7.272 42.938-7.272 8.044 0 16.096 0.746 24.048 2.24 0.196 0.038 0.392 0.078 0.588 0.124l83.41 19.174c24.768 4.844 41.1 28.838 36.488 53.676-0.008 0.034-0.014 0.066-0.020 0.102-2.274 12.104-9.126 22.6-19.292 29.552-10.168 6.954-22.432 9.526-34.54 7.258-0.242-0.044-0.482-0.098-0.722-0.154l-67.040-16.050c-17.166-3.16-34.914-1.772-51.37 4.014-0.204 0.072-0.41 0.14-0.616 0.202l-24.916 7.562c9.632 14.184 18.854 25.76 26.164 34.262l2.134-2.398c5.49-6.222 13.074-9.934 21.358-10.454 0.662-0.042 1.322-0.060 1.98-0.060 7.566 0 14.786 2.722 20.51 7.772l32.68 28.838c0.002 0 0.002 0.002 0.002 0.002 12.844 11.334 14.072 31.006 2.694 43.896l-107.36 120.62c-5.49 6.224-13.076 9.934-21.358 10.454-8.294 0.506-16.27-2.222-22.492-7.712l-32.682-28.84c-6.22-5.49-9.932-13.074-10.45-21.356-0.518-8.284 2.222-16.272 7.754-22.54l14.54-16.336c-5.296-6.366-10.504-12.886-15.558-19.558-4.996-6.598-3.698-15.998 2.902-20.994s15.998-3.696 20.994 2.902c3.858 5.094 7.824 10.076 11.832 14.99l50.338-56.556c-9.676-10.908-22.814-27.112-36.19-47.766l-13.884 4.214c-23.89 8.194-50.066-4.452-58.46-28.328-8.43-23.988 4.226-50.364 28.214-58.794 0.166-0.056 0.334-0.114 0.502-0.166l2.714-0.848c-3.542-10.492-6.682-21.416-9.238-32.782-14.95 3.816-30.594 5.876-46.718 5.876-10.522 0-20.84-0.878-30.9-2.538 11.94 38.334 32.156 92 64.102 146.478 4.188 7.14 1.794 16.322-5.346 20.508s-16.322 1.794-20.508-5.346c-38.95-66.422-61.004-130.584-72.3-170.594-72.388-26.552-124.176-96.16-124.176-177.636 0-50.4 19.832-96.244 52.082-130.178-51.054-13.664-81.69-49.26-83.25-99.728h-32.644c-16.916 0-30.678-13.762-30.678-30.676v-51.296c0-16.916 13.762-30.678 30.678-30.678h962.644c16.916 0 30.678 13.762 30.678 30.678v51.296c0 16.914-13.762 30.676-30.678 30.676zM770.946 479.994c-10.038 1.636-20.25 2.52-30.572 2.52-4.32 0-8.598-0.176-12.844-0.462 6.716 17.948 17.2 32.878 33.136 51.63h18.832c-3.28-13.308-7.030-32.256-8.552-53.688zM701.004 563.654c-8.792 0-15.942 7.152-15.942 15.942s7.152 15.94 15.942 15.94h27.696c19.73 0 38.876 7.034 53.906 19.808l7.334 6.232c9.62 8.174 21.872 12.676 34.498 12.676 19.464 0 35.298-15.836 35.298-35.3s-15.836-35.3-35.298-35.3h-123.434zM354.068 756.544c-0.074 0.082-0.298 0.338-0.272 0.788 0.030 0.452 0.284 0.678 0.366 0.75l32.682 28.84c0.078 0.068 0.308 0.274 0.712 0.274 0.026 0 0.050-0.002 0.078-0.004 0.452-0.028 0.678-0.284 0.794-0.416l107.362-120.622c0.398-0.45 0.354-1.142-0.098-1.542l-32.678-28.836c-0.082-0.074-0.366-0.294-0.792-0.272-0.452 0.028-0.678 0.284-0.794 0.416zM597.69 169.41h-171.376c14.814 17.026 26.592 36.738 34.6 58.268h102.16c8.006-21.534 19.802-41.24 34.616-58.268zM336.43 559.288c2.948 8.396 12.19 12.83 20.576 9.874 0.204-0.070 0.41-0.138 0.616-0.2l68.986-20.938c21.436-7.474 44.552-9.214 66.876-5.020 0.242 0.044 0.484 0.098 0.724 0.154l66.994 16.040c8.644 1.448 16.878-4.274 18.524-12.886 0.004-0.022 0.008-0.042 0.012-0.062 1.64-8.742-4.138-17.194-12.88-18.84-0.194-0.036-0.39-0.076-0.586-0.122l-83.37-19.166c-17.19-3.182-34.982-1.802-51.476 3.994-0.166 0.058-0.334 0.116-0.502 0.166l-84.83 26.508c-8.258 3.026-12.59 12.174-9.664 20.498zM124.47 293.386c0 87.758 71.396 159.154 159.154 159.154 64.338 0 119.868-38.382 144.928-93.446h-126.23c-36.232 0-65.708-29.478-65.708-65.708s29.478-65.708 65.708-65.708h8.192c8.278 0 14.986 6.708 14.986 14.986s-6.708 14.986-14.986 14.986h-8.192c-19.706 0-35.736 16.030-35.736 35.736 0 19.704 16.030 35.736 35.736 35.736h419.354c19.706 0 35.736-16.030 35.736-35.736s-16.030-35.736-35.736-35.736h-342.224c-8.278 0-14.986-6.708-14.986-14.986s6.708-14.986 14.986-14.986h49.080c-10.386-22.794-25.984-42.736-45.284-58.268h-186.040c-4.344 0-8.584-0.14-12.754-0.372-36.526 29.184-59.984 74.068-59.984 124.348zM197.208 139.436h642.886c44.908 0 82.298-32.808 89.462-75.716h-836.244c1.282 25.82 15.258 75.716 103.896 75.716zM994.026-18.49c0-0.388-0.316-0.704-0.704-0.704h-962.644c-0.388 0-0.704 0.316-0.704 0.704v51.296c0 0.386 0.316 0.702 0.704 0.702h962.644c0.388 0 0.704-0.316 0.704-0.702z" />
<glyph unicode="&#xe928;" glyph-name="bicycle" d="M805.774 533.038c-29.761 0-58.143-5.996-84.017-16.831l-61.87 120.044h86.474c9.381 0 17.013-7.632 17.013-17.013s-7.632-17.013-17.013-17.013h-18.45c-9.712 0-17.581-7.871-17.581-17.581s7.869-17.581 17.581-17.581h18.45c28.769 0 52.175 23.406 52.175 52.175s-23.403 52.175-52.175 52.175h-115.311c-6.13 0-11.819-3.195-15.012-8.429-3.19-5.234-3.425-11.756-0.616-17.206l30.766-59.697h-253.732l-25.598 50.171h40.48c9.712 0 17.581 7.871 17.581 17.581s-7.869 17.581-17.581 17.581h-115.313c-9.712 0-17.581-7.871-17.581-17.581s7.869-17.581 17.581-17.581h35.358l34.168-66.966-40.159-62.219c-30.738 16.561-65.871 25.973-103.166 25.973-120.33 0-218.226-97.894-218.226-218.224s97.897-218.226 218.226-218.226c114.411 0 208.533 88.506 217.516 200.645h51.587l-20.040-65.208h-11.538c-9.712 0-17.581-7.871-17.581-17.581s7.869-17.581 17.581-17.581h63.291c9.712 0 17.581 7.871 17.581 17.581s-7.869 17.581-17.581 17.581h-14.969l23.134 75.278 146.286 225.8 17.039-33.059c-61.783-38.579-102.983-107.179-102.983-185.231 0-120.33 97.897-218.226 218.228-218.226s218.226 97.897 218.226 218.226c-0.002 120.33-97.899 218.224-218.228 218.224zM380.027 533.073l102.385-200.678h-46.673c-5.068 63.255-37.229 118.982-84.84 155.552l29.128 45.126zM400.428 332.395h-149.928l81.249 125.876c37.995-30.133 63.806-74.981 68.68-125.876zM218.226 131.749c-100.944 0-183.065 82.121-183.065 183.065 0 100.942 82.121 183.065 183.065 183.065 30.272 0 58.825-7.431 84.005-20.494l-98.778-153.034c-3.49-5.408-3.746-12.292-0.666-17.944 3.078-5.652 9.001-9.17 15.438-9.17h182.202c-8.879-92.725-87.191-165.486-182.202-165.486zM512.933 349.945l-102.538 200.976h232.743l-130.205-200.976zM805.774 131.749c-100.944 0-183.067 82.123-183.067 183.065 0 64.458 33.516 121.199 84.008 153.827l83.431-161.881c3.122-6.055 9.269-9.529 15.642-9.529 2.712 0 5.464 0.631 8.040 1.957 8.633 4.447 12.023 15.049 7.574 23.682l-83.457 161.928c20.994 8.406 43.867 13.082 67.829 13.082 100.944 0 183.065-82.123 183.065-183.065 0-100.946-82.121-183.067-183.065-183.067z" />
<glyph unicode="&#xe929;" glyph-name="arrow-point-to-right" d="M782.857 333.307l-440.304-440.29c-28.009-28.022-73.42-28.022-101.415 0-27.997 27.997-27.997 73.406 0 101.401l389.601 389.589-389.589 389.576c-27.997 28.009-27.997 73.413 0 101.41 27.997 28.009 73.406 28.009 101.415 0l440.304-440.297c13.999-14.005 20.99-32.342 20.99-50.687 0-18.354-7.005-36.704-21.001-50.703z" />
<glyph unicode="&#xe92a;" glyph-name="bookmark-1" d="M751.789 721.16h-71.428v71.428c0 11.775-9.547 21.322-21.322 21.322s-21.322-9.547-21.322-21.322v-71.428h-71.428c-11.775 0-21.322-9.547-21.322-21.322s9.547-21.322 21.322-21.322h71.428v-71.428c0-11.775 9.547-21.322 21.322-21.322s21.322 9.547 21.322 21.322v71.428h71.428c11.775 0 21.322 9.547 21.322 21.322s-9.547 21.322-21.322 21.322zM659.253 895.997c-85.838-0.011-161.714-55.804-187.311-137.738h-221.745c-21.274-0.016-41.713-8.267-57.035-23.027l-1.386-1.279c-15.41-15.49-24.038-36.465-23.987-58.315v-731.653c-0.402-18.086 5.392-35.764 16.418-50.106 15.741-19.949 42.779-27.079 66.31-17.484 20.621 9.056 37.726 24.587 48.72 44.242l125.052 199.358 124.732-199.571c10.994-19.656 28.099-35.189 48.72-44.242 23.63-9.579 50.746-2.308 66.417 17.804 11.026 14.341 16.82 32.020 16.418 50.106v560.867c100.188 10.48 176.128 95.18 175.653 195.914-0.512 108.277-88.698 195.637-196.975 195.125zM631.961-78.83c-1.914-2.513-4.558-4.374-7.569-5.33-3.547-0.93-7.305-0.629-10.661 0.853-11.764 5.842-21.388 15.242-27.505 26.865l-143.708 227.502c-1.802 3.001-4.312 5.512-7.313 7.313-10.098 6.058-23.195 2.782-29.253-7.313l-142.109-227.715c-6.117-11.623-15.741-21.023-27.505-26.865-3.355-1.482-7.113-1.783-10.661-0.853-3.014 0.949-5.661 2.812-7.569 5.33-4.811 6.724-7.215 14.875-6.823 23.134v731.227c0.008 10.485 4.19 20.535 11.62 27.931l0.853 0.853c7.207 6.916 16.769 10.842 26.759 10.981h213.217c-0.354-4.976-0.533-9.987-0.533-15.032 0.043-99.929 75.199-183.854 174.518-194.88l1.066-560.867c0.392-8.259-2.012-16.407-6.823-23.134zM767.396 591.908c-59.762-59.725-156.624-59.698-216.351 0.064-59.725 59.762-59.698 156.624 0.064 216.351s156.624 59.698 216.351-0.064c28.726-28.678 44.839-67.619 44.776-108.207-0.016-40.567-16.146-79.466-44.839-108.144z" />
<glyph unicode="&#xe92b;" glyph-name="bookmark" d="M659.253 895.997c-85.838-0.011-161.714-55.804-187.311-137.738h-221.745c-21.274-0.016-41.713-8.267-57.035-23.027l-1.386-1.279c-15.41-15.49-24.038-36.465-23.987-58.315v-731.653c-0.402-18.086 5.392-35.764 16.418-50.106 15.741-19.949 42.779-27.079 66.31-17.484 20.621 9.056 37.726 24.587 48.72 44.242l125.052 199.358 124.732-199.571c10.994-19.656 28.099-35.189 48.72-44.242 23.63-9.579 50.746-2.308 66.417 17.804 11.026 14.341 16.82 32.020 16.418 50.106v560.867c100.188 10.48 176.128 95.18 175.653 195.914-0.512 108.277-88.698 195.637-196.975 195.125zM631.961-78.83c-1.908-2.519-4.555-4.382-7.569-5.33-3.547-0.93-7.305-0.629-10.661 0.853-11.764 5.842-21.388 15.242-27.505 26.865l-143.708 227.502c-1.802 3.001-4.312 5.512-7.313 7.313-10.098 6.058-23.195 2.782-29.253-7.313l-142.109-227.715c-6.117-11.623-15.741-21.023-27.505-26.865-3.355-1.482-7.113-1.783-10.661-0.853-3.014 0.949-5.661 2.812-7.569 5.33-4.811 6.724-7.215 14.875-6.823 23.134v731.227c0.008 10.485 4.19 20.535 11.62 27.931l0.853 0.853c7.207 6.916 16.769 10.842 26.759 10.981h213.217c-0.354-4.976-0.533-9.987-0.533-15.032 0.043-99.929 75.199-183.854 174.518-194.88l1.066-560.867c0.392-8.259-2.012-16.407-6.823-23.134zM767.396 591.908c-59.762-59.725-156.624-59.698-216.351 0.064-59.725 59.762-59.698 156.624 0.064 216.351s156.624 59.698 216.351-0.064c28.726-28.678 44.839-67.619 44.776-108.207-0.016-40.567-16.146-79.466-44.839-108.144zM752.215 721.16h-185.925c-11.775 0-21.322-9.547-21.322-21.322s9.547-21.322 21.322-21.322h185.925c11.775 0 21.322 9.547 21.322 21.322s-9.547 21.322-21.322 21.322z" />
<glyph unicode="&#xe92c;" glyph-name="clock" d="M512 896c-282.319 0-512-229.681-512-512s229.681-512 512-512 512 229.681 512 512-229.681 512-512 512zM512-20.211c-222.882 0-404.211 181.329-404.211 404.211s181.329 404.211 404.211 404.211 404.211-181.329 404.211-404.211-181.329-404.211-404.211-404.211zM786.844 399.813h-199.941c-7.265 11.838-17.254 21.827-29.092 29.092v240.362c0 25.301-20.51 45.811-45.811 45.811s-45.811-20.51-45.811-45.811v-240.362c-25.182-15.46-42.019-43.251-42.019-74.903 0-48.43 39.402-87.83 87.83-87.83 31.652 0 59.443 16.837 74.903 42.019h199.941c25.301 0 45.811 20.51 45.811 45.811s-20.51 45.811-45.811 45.811z" />
<glyph unicode="&#xe92d;" glyph-name="play-button-1" d="M879.393 404.078l-707.064 487.631c-7.485 5.145-17.189 5.681-25.186 1.512-8.022-4.218-13.044-12.508-13.044-21.578v-975.261c0-9.070 5.023-17.384 13.044-21.602 3.56-1.853 7.461-2.779 11.337-2.779 4.852 0 9.679 1.463 13.849 4.316l707.064 487.631c6.607 4.559 10.533 12.044 10.533 20.066s-3.95 15.507-10.533 20.066zM182.861-57.196v882.392l639.747-441.208-639.747-441.184z" />
<glyph unicode="&#xe92e;" glyph-name="play-button" d="M879.393 404.078l-707.064 487.631c-7.485 5.145-17.189 5.681-25.186 1.512-8.022-4.218-13.044-12.508-13.044-21.578v-975.261c0-9.070 5.023-17.384 13.044-21.602 3.56-1.853 7.461-2.779 11.337-2.779 4.852 0 9.679 1.463 13.849 4.316l707.064 487.631c6.607 4.559 10.533 12.044 10.533 20.066s-3.95 15.507-10.533 20.066z" />
</font>
</defs>
</svg>
